<svg width="3000" height="2668" viewBox="0 0 3000 2668" fill="none" xmlns="http://www.w3.org/2000/svg">
<path d="M1241.62 2423.71H2830.37C2830.37 2423.71 2700.15 2659.95 1971.98 2642.54C1243.81 2625.13 1318.53 2513.84 1318.53 2513.84C1318.53 2513.84 1012.32 2510.02 971.293 2477.62C930.269 2445.23 635.074 2524.84 485.249 2486.48C335.423 2448.13 485.249 2424.73 485.249 2424.73L1241.62 2423.71Z" fill="#F4F3F2" stroke="#1A1A1A" stroke-width="4.198" stroke-linecap="round" stroke-linejoin="round"/>
<path d="M275.012 2424.73H2834.93C2963.63 2145.61 2805.69 1861.75 2610.86 1813.12C2434.42 1769.07 2185.66 1907.46 2117.93 2168.89C2085.71 2138.93 1998.26 2066.04 1868.66 2054.82C1708.27 2040.94 1548.05 2127.1 1454.14 2274.81C1427.88 2250.53 1157.63 2009.2 781.953 2079.27C459.063 2139.49 300.061 2384.64 275.012 2424.73Z" fill="#F4F3F2" stroke="#1A1A1A" stroke-width="4.198" stroke-linecap="round" stroke-linejoin="round"/>
<path d="M2744.23 1725.6C2783.9 1725.6 2816.05 1694.42 2816.05 1655.96C2816.05 1617.5 2783.9 1586.32 2744.23 1586.32C2704.57 1586.32 2672.41 1617.5 2672.41 1655.96C2672.41 1694.42 2704.57 1725.6 2744.23 1725.6Z" fill="#F4F3F2" stroke="#1A1A1A" stroke-width="4.198" stroke-linecap="round" stroke-linejoin="round"/>
<path d="M2495.21 395.9C2495.21 378.781 2491.73 361.83 2484.98 346.014C2478.22 330.198 2468.32 315.827 2455.84 303.722C2443.35 291.617 2428.53 282.015 2412.22 275.464C2395.91 268.912 2378.43 265.541 2360.77 265.541H751.258C733.603 265.541 716.122 268.912 699.811 275.464C683.5 282.015 668.68 291.617 656.196 303.722C643.712 315.827 633.81 330.198 627.054 346.014C620.298 361.83 616.82 378.781 616.82 395.9V403.142H2495.21V395.9Z" fill="#FDBD43" stroke="#1A1A1A" stroke-width="2.099" stroke-linecap="round" stroke-linejoin="round"/>
<path d="M616.82 403.142V1312.04C616.82 1329.16 620.298 1346.11 627.054 1361.92C633.81 1377.74 643.712 1392.11 656.196 1404.22C668.68 1416.32 683.5 1425.92 699.811 1432.47C716.122 1439.03 733.603 1442.4 751.258 1442.4H2360.77C2378.43 1442.4 2395.91 1439.03 2412.22 1432.47C2428.53 1425.92 2443.35 1416.32 2455.83 1404.22C2468.32 1392.11 2478.22 1377.74 2484.98 1361.92C2491.73 1346.11 2495.21 1329.16 2495.21 1312.04V403.142H616.82Z" fill="#F4F3F2" stroke="#1A1A1A" stroke-width="4.198" stroke-linecap="round" stroke-linejoin="round"/>
<path d="M2693.52 682.239H2411.42C2404.08 682.239 2398.12 688.016 2398.12 695.142V806.937C2398.12 814.063 2404.08 819.84 2411.42 819.84H2693.52C2700.87 819.84 2706.83 814.063 2706.83 806.937V695.142C2706.83 688.016 2700.87 682.239 2693.52 682.239Z" fill="#F4F3F2" stroke="#1A1A1A" stroke-width="4.198" stroke-linecap="round" stroke-linejoin="round"/>
<path d="M2693.52 859.389H2411.42C2404.08 859.389 2398.12 865.166 2398.12 872.292V984.087C2398.12 991.213 2404.08 996.99 2411.42 996.99H2693.52C2700.87 996.99 2706.83 991.213 2706.83 984.087V872.292C2706.83 865.166 2700.87 859.389 2693.52 859.389Z" fill="#FDBD43" stroke="#1A1A1A" stroke-width="2.099" stroke-linecap="round" stroke-linejoin="round"/>
<path d="M1795.64 828.621C1795.64 828.621 1782.6 832.448 1775.41 830.432Z" fill="#F4F3F2"/>
<path d="M1795.64 828.621C1795.64 828.621 1782.6 832.448 1775.41 830.432" stroke="#1A1A1A" stroke-width="4.198" stroke-linecap="round" stroke-linejoin="round"/>
<path d="M766.195 872.075C766.195 872.075 767.353 876.228 769.877 883.749" stroke="#1A1A1A" stroke-width="4.198" stroke-linecap="round" stroke-linejoin="round"/>
<path d="M778.275 906.855C813.057 996.37 929.378 1233.07 1208.72 1310.23C1439.59 1374 1578.54 1352.85 1630.98 1339.44" stroke="#1A1A1A" stroke-width="4.198" stroke-linecap="round" stroke-linejoin="round" stroke-dasharray="25.27 25.27"/>
<path d="M1643.12 1336.05C1651.04 1333.63 1654.98 1331.95 1654.98 1331.95" stroke="#1A1A1A" stroke-width="4.198" stroke-linecap="round" stroke-linejoin="round"/>
<path d="M833.414 403.142V415.354" stroke="#1A1A1A" stroke-width="4.198" stroke-linecap="round" stroke-linejoin="round"/>
<path d="M833.414 440.106V1417.81" stroke="#1A1A1A" stroke-width="4.198" stroke-linecap="round" stroke-linejoin="round" stroke-dasharray="25.53 25.53"/>
<path d="M833.414 1430.19V1442.4" stroke="#1A1A1A" stroke-width="4.198" stroke-linecap="round" stroke-linejoin="round"/>
<path d="M616.82 514.49H629.414" stroke="#1A1A1A" stroke-width="4.198" stroke-linecap="round" stroke-linejoin="round"/>
<path d="M654.8 514.49H2469.92" stroke="#1A1A1A" stroke-width="4.198" stroke-linecap="round" stroke-linejoin="round" stroke-dasharray="25.39 25.39"/>
<path d="M2482.62 514.49H2495.21" stroke="#1A1A1A" stroke-width="4.198" stroke-linecap="round" stroke-linejoin="round"/>
<path d="M528.205 1397.34L584.32 1468.18L712.788 1372.49L658.588 1300.23L528.205 1397.34Z" fill="#F4F3F2"/>
<path d="M809.069 1378.41L944.252 1277.72L939.255 1164.26L849.417 1231.18C852.228 1239.49 851.945 1248.5 848.615 1256.64C845.286 1264.77 839.121 1271.52 831.193 1275.7C823.265 1279.88 814.076 1281.24 805.224 1279.53C796.371 1277.82 788.416 1273.16 782.742 1266.36C777.068 1259.55 774.033 1251.03 774.167 1242.28C774.3 1233.53 777.593 1225.1 783.472 1218.46C789.351 1211.82 797.445 1207.39 806.345 1205.93C815.246 1204.48 824.39 1206.1 832.187 1210.51L922.565 1143.19L810.8 1109.26L675.617 1209.95L663.948 1296.24L658.588 1300.23L712.788 1372.49L720.063 1367.07L809.069 1378.41Z" fill="#F4F3F2"/>
<path d="M528.204 1397.34L475.381 1436.69L531.496 1507.53L584.319 1468.18L528.204 1397.34Z" fill="#F4F3F2"/>
<path d="M475.381 1436.69L324.6 1548.99L380.715 1619.83L531.497 1507.52L475.381 1436.69Z" fill="#F4F3F2"/>
<path d="M528.205 1397.34L584.32 1468.18L712.788 1372.49L658.588 1300.23L528.205 1397.34Z" stroke="white" stroke-width="2.099" stroke-miterlimit="10"/>
<path d="M809.069 1378.41L944.252 1277.72L939.255 1164.26L849.417 1231.18C852.228 1239.49 851.945 1248.5 848.615 1256.64C845.286 1264.77 839.121 1271.52 831.193 1275.7C823.265 1279.88 814.076 1281.24 805.224 1279.53C796.371 1277.82 788.416 1273.16 782.742 1266.36C777.068 1259.55 774.033 1251.03 774.167 1242.28C774.3 1233.53 777.593 1225.1 783.472 1218.46C789.351 1211.82 797.445 1207.39 806.345 1205.93C815.246 1204.48 824.39 1206.1 832.187 1210.51L922.565 1143.19L810.8 1109.26L675.617 1209.95L663.948 1296.24L658.588 1300.23L712.788 1372.49L720.063 1367.07L809.069 1378.41Z" stroke="white" stroke-width="2.099" stroke-miterlimit="10"/>
<path d="M528.204 1397.34L475.381 1436.69L531.496 1507.53L584.319 1468.18L528.204 1397.34Z" fill="#FDBD43" stroke="#1A1A1A" stroke-width="2.099" stroke-linecap="round" stroke-linejoin="round"/>
<path d="M475.381 1436.69L324.6 1548.99L380.715 1619.83L531.497 1507.52L475.381 1436.69Z" stroke="white" stroke-width="2.099" stroke-miterlimit="10"/>
<path d="M528.205 1397.34L584.32 1468.18L712.788 1372.49L658.588 1300.23L528.205 1397.34Z" stroke="#1A1A1A" stroke-width="4.198" stroke-linecap="round" stroke-linejoin="round"/>
<path d="M809.069 1378.41L944.252 1277.72L939.255 1164.26L849.417 1231.18C852.228 1239.49 851.945 1248.5 848.615 1256.64C845.286 1264.77 839.121 1271.52 831.193 1275.7C823.265 1279.88 814.076 1281.24 805.224 1279.53C796.371 1277.82 788.416 1273.16 782.742 1266.36C777.068 1259.55 774.033 1251.03 774.167 1242.28C774.3 1233.53 777.593 1225.1 783.472 1218.46C789.351 1211.82 797.445 1207.39 806.345 1205.93C815.246 1204.48 824.39 1206.1 832.187 1210.51L922.565 1143.19L810.8 1109.26L675.617 1209.95L663.948 1296.24L658.588 1300.23L712.788 1372.49L720.063 1367.07L809.069 1378.41Z" stroke="#1A1A1A" stroke-width="4.198" stroke-linecap="round" stroke-linejoin="round"/>
<path d="M528.204 1397.34L475.381 1436.69L531.496 1507.53L584.319 1468.18L528.204 1397.34Z" stroke="#1A1A1A" stroke-width="4.198" stroke-linecap="round" stroke-linejoin="round"/>
<path d="M475.381 1436.69L324.6 1548.99L380.715 1619.83L531.497 1507.52L475.381 1436.69Z" stroke="#1A1A1A" stroke-width="4.198" stroke-linecap="round" stroke-linejoin="round"/>
<path d="M544.002 708.22V652.091H484.283C481.949 643.889 478.58 635.999 474.252 628.597L516.474 587.656L475.535 547.959L433.313 588.901C425.68 584.704 417.543 581.437 409.085 579.173V521.291H351.226V579.173C342.768 581.437 334.63 584.704 326.998 588.901L284.775 547.959L243.836 587.656L286.059 628.597C281.731 635.999 278.362 643.889 276.027 652.091H216.308V708.22H276.027C278.362 716.422 281.731 724.312 286.059 731.714L243.836 772.655L284.775 812.352L326.998 771.411C334.63 775.607 342.768 778.874 351.226 781.138V839.02H409.085V781.138C417.543 778.874 425.68 775.607 433.313 771.411L475.535 812.352L516.474 772.655L474.252 731.714C478.58 724.312 481.949 716.422 484.283 708.22H544.002ZM430.275 708.22C425.193 716.754 417.885 723.84 409.085 728.767C404.712 731.236 400.016 733.124 395.124 734.38C385.308 736.92 374.976 736.92 365.16 734.38C360.277 733.124 355.59 731.236 351.226 728.767C337.939 721.305 328.233 709.054 324.221 694.683C322.933 689.942 322.281 685.059 322.283 680.156C322.277 675.25 322.937 670.366 324.247 665.628C325.543 660.885 327.49 656.331 330.036 652.091C335.125 643.563 342.431 636.478 351.226 631.544C355.59 629.075 360.277 627.187 365.16 625.931C374.976 623.391 385.308 623.391 395.124 625.931C400.016 627.187 404.712 629.075 409.085 631.544C417.88 636.478 425.186 643.563 430.275 652.091C432.821 656.331 434.768 660.884 436.063 665.628C437.373 670.366 438.034 675.25 438.028 680.155C438.029 685.059 437.378 689.942 436.089 694.683C434.773 699.424 432.818 703.975 430.275 708.22Z" fill="#F4F3F2" stroke="#1A1A1A" stroke-width="4.198" stroke-linecap="round" stroke-linejoin="round"/>
<path d="M835.904 369.948C856.185 369.948 872.625 354.006 872.625 334.341C872.625 314.676 856.185 298.734 835.904 298.734C815.624 298.734 799.183 314.676 799.183 334.341C799.183 354.006 815.624 369.948 835.904 369.948Z" fill="#F4F3F2" stroke="#1A1A1A" stroke-width="4.198" stroke-linecap="round" stroke-linejoin="round"/>
<path d="M1223.55 313.822H938.083C933.555 313.822 929.885 317.381 929.885 321.772V352.947C929.885 357.338 933.555 360.897 938.083 360.897H1223.55C1228.08 360.897 1231.75 357.338 1231.75 352.947V321.772C1231.75 317.381 1228.08 313.822 1223.55 313.822Z" fill="#F4F3F2" stroke="#1A1A1A" stroke-width="4.198" stroke-linecap="round" stroke-linejoin="round"/>
<path d="M911.836 527.919V738.387C911.836 749.353 916.329 759.871 924.326 767.625C932.323 775.38 943.169 779.736 954.479 779.736H2000.71C2012.02 779.736 2022.86 775.38 2030.86 767.625C2038.86 759.871 2043.35 749.353 2043.35 738.387V527.919H911.836Z" fill="#F4F3F2" stroke="#1A1A1A" stroke-width="4.198" stroke-linecap="round" stroke-linejoin="round"/>
<path d="M1054.65 626.539H1041.9C1041.53 624.449 1040.86 622.596 1039.89 620.983C1038.91 619.346 1037.69 617.96 1036.24 616.824C1034.78 615.687 1033.13 614.835 1031.26 614.267C1029.42 613.676 1027.43 613.38 1025.3 613.38C1021.5 613.38 1018.14 614.335 1015.2 616.244C1012.27 618.13 1009.98 620.903 1008.32 624.562C1006.66 628.199 1005.83 632.642 1005.83 637.892C1005.83 643.233 1006.66 647.733 1008.32 651.392C1010 655.028 1012.3 657.778 1015.2 659.642C1018.14 661.483 1021.49 662.403 1025.26 662.403C1027.35 662.403 1029.31 662.13 1031.12 661.585C1032.97 661.017 1034.61 660.187 1036.07 659.096C1037.55 658.005 1038.78 656.664 1039.78 655.074C1040.81 653.483 1041.51 651.664 1041.9 649.619L1054.65 649.687C1054.17 653.005 1053.14 656.119 1051.55 659.028C1049.98 661.937 1047.92 664.505 1045.38 666.733C1042.83 668.937 1039.85 670.664 1036.44 671.914C1033.03 673.142 1029.25 673.755 1025.09 673.755C1018.95 673.755 1013.48 672.335 1008.66 669.494C1003.84 666.653 1000.05 662.551 997.273 657.187C994.5 651.824 993.114 645.392 993.114 637.892C993.114 630.369 994.511 623.937 997.307 618.596C1000.1 613.233 1003.91 609.13 1008.73 606.289C1013.55 603.449 1019 602.028 1025.09 602.028C1028.98 602.028 1032.59 602.574 1035.93 603.664C1039.27 604.755 1042.25 606.358 1044.86 608.471C1047.48 610.562 1049.63 613.13 1051.31 616.176C1053.01 619.199 1054.13 622.653 1054.65 626.539ZM1088.53 673.824C1083.41 673.824 1078.98 672.699 1075.23 670.449C1071.48 668.199 1068.57 665.051 1066.5 661.005C1064.46 656.96 1063.43 652.233 1063.43 646.824C1063.43 641.414 1064.46 636.676 1066.5 632.608C1068.57 628.539 1071.48 625.38 1075.23 623.13C1078.98 620.88 1083.41 619.755 1088.53 619.755C1093.64 619.755 1098.07 620.88 1101.82 623.13C1105.57 625.38 1108.47 628.539 1110.51 632.608C1112.58 636.676 1113.62 641.414 1113.62 646.824C1113.62 652.233 1112.58 656.96 1110.51 661.005C1108.47 665.051 1105.57 668.199 1101.82 670.449C1098.07 672.699 1093.64 673.824 1088.53 673.824ZM1088.59 663.937C1091.37 663.937 1093.68 663.176 1095.55 661.653C1097.41 660.108 1098.8 658.039 1099.71 655.449C1100.64 652.858 1101.11 649.971 1101.11 646.789C1101.11 643.585 1100.64 640.687 1099.71 638.096C1098.8 635.483 1097.41 633.403 1095.55 631.858C1093.68 630.312 1091.37 629.539 1088.59 629.539C1085.75 629.539 1083.39 630.312 1081.5 631.858C1079.64 633.403 1078.24 635.483 1077.31 638.096C1076.4 640.687 1075.95 643.585 1075.95 646.789C1075.95 649.971 1076.4 652.858 1077.31 655.449C1078.24 658.039 1079.64 660.108 1081.5 661.653C1083.39 663.176 1085.75 663.937 1088.59 663.937ZM1124.09 672.801V620.437H1135.89V629.335H1136.5C1137.59 626.335 1139.4 623.994 1141.92 622.312C1144.44 620.608 1147.45 619.755 1150.95 619.755C1154.5 619.755 1157.49 620.619 1159.92 622.346C1162.38 624.051 1164.1 626.38 1165.1 629.335H1165.65C1166.81 626.426 1168.76 624.108 1171.51 622.38C1174.28 620.63 1177.57 619.755 1181.36 619.755C1186.18 619.755 1190.11 621.278 1193.16 624.324C1196.2 627.369 1197.73 631.812 1197.73 637.653V672.801H1185.35V639.562C1185.35 636.312 1184.49 633.937 1182.76 632.437C1181.03 630.914 1178.92 630.153 1176.42 630.153C1173.44 630.153 1171.11 631.085 1169.43 632.949C1167.77 634.789 1166.94 637.187 1166.94 640.142V672.801H1154.84V639.051C1154.84 636.346 1154.02 634.187 1152.39 632.574C1150.77 630.96 1148.66 630.153 1146.05 630.153C1144.27 630.153 1142.66 630.608 1141.2 631.517C1139.75 632.403 1138.59 633.664 1137.73 635.301C1136.86 636.914 1136.43 638.801 1136.43 640.96V672.801H1124.09ZM1210.25 672.801V620.437H1222.59V672.801H1210.25ZM1216.45 613.005C1214.5 613.005 1212.82 612.358 1211.41 611.062C1210 609.744 1209.29 608.164 1209.29 606.324C1209.29 604.46 1210 602.88 1211.41 601.585C1212.82 600.267 1214.5 599.608 1216.45 599.608C1218.43 599.608 1220.11 600.267 1221.5 601.585C1222.91 602.88 1223.61 604.46 1223.61 606.324C1223.61 608.164 1222.91 609.744 1221.5 611.062C1220.11 612.358 1218.43 613.005 1216.45 613.005ZM1247.62 642.119V672.801H1235.28V620.437H1247.07V629.335H1247.69C1248.89 626.403 1250.81 624.074 1253.45 622.346C1256.11 620.619 1259.39 619.755 1263.3 619.755C1266.91 619.755 1270.06 620.528 1272.74 622.074C1275.45 623.619 1277.54 625.858 1279.02 628.789C1280.52 631.721 1281.26 635.278 1281.23 639.46V672.801H1268.89V641.369C1268.89 637.869 1267.98 635.13 1266.16 633.153C1264.37 631.176 1261.88 630.187 1258.7 630.187C1256.54 630.187 1254.62 630.664 1252.94 631.619C1251.28 632.551 1249.97 633.903 1249.02 635.676C1248.09 637.449 1247.62 639.596 1247.62 642.119ZM1316.55 693.528C1312.12 693.528 1308.31 692.926 1305.13 691.721C1301.95 690.539 1299.39 688.949 1297.46 686.949C1295.53 684.949 1294.19 682.733 1293.44 680.301L1304.55 677.608C1305.05 678.63 1305.78 679.642 1306.73 680.642C1307.69 681.664 1308.97 682.505 1310.59 683.164C1312.22 683.846 1314.28 684.187 1316.76 684.187C1320.26 684.187 1323.15 683.335 1325.45 681.63C1327.74 679.949 1328.89 677.176 1328.89 673.312V663.392H1328.28C1327.64 664.664 1326.71 665.971 1325.48 667.312C1324.28 668.653 1322.68 669.778 1320.68 670.687C1318.7 671.596 1316.21 672.051 1313.21 672.051C1309.19 672.051 1305.54 671.108 1302.27 669.221C1299.02 667.312 1296.43 664.471 1294.49 660.699C1292.59 656.903 1291.63 652.153 1291.63 646.449C1291.63 640.699 1292.59 635.846 1294.49 631.892C1296.43 627.914 1299.03 624.903 1302.3 622.858C1305.57 620.789 1309.22 619.755 1313.24 619.755C1316.31 619.755 1318.84 620.278 1320.81 621.324C1322.81 622.346 1324.4 623.585 1325.59 625.039C1326.77 626.471 1327.66 627.824 1328.28 629.096H1328.96V620.437H1341.13V673.653C1341.13 678.13 1340.06 681.835 1337.93 684.767C1335.79 687.699 1332.87 689.892 1329.16 691.346C1325.46 692.801 1321.26 693.528 1316.55 693.528ZM1316.65 662.369C1319.27 662.369 1321.49 661.733 1323.34 660.46C1325.18 659.187 1326.57 657.358 1327.53 654.971C1328.48 652.585 1328.96 649.721 1328.96 646.38C1328.96 643.085 1328.48 640.199 1327.53 637.721C1326.6 635.244 1325.21 633.324 1323.37 631.96C1321.55 630.574 1319.31 629.88 1316.65 629.88C1313.9 629.88 1311.61 630.596 1309.77 632.028C1307.93 633.46 1306.54 635.426 1305.61 637.926C1304.68 640.403 1304.21 643.221 1304.21 646.38C1304.21 649.585 1304.68 652.392 1305.61 654.801C1306.56 657.187 1307.96 659.051 1309.8 660.392C1311.66 661.71 1313.95 662.369 1316.65 662.369ZM1416.08 622.176C1415.76 619.199 1414.42 616.88 1412.06 615.221C1409.72 613.562 1406.67 612.733 1402.92 612.733C1400.28 612.733 1398.02 613.13 1396.14 613.926C1394.25 614.721 1392.81 615.801 1391.81 617.164C1390.81 618.528 1390.3 620.085 1390.27 621.835C1390.27 623.289 1390.6 624.551 1391.26 625.619C1391.94 626.687 1392.86 627.596 1394.02 628.346C1395.18 629.074 1396.47 629.687 1397.88 630.187C1399.28 630.687 1400.7 631.108 1402.14 631.449L1408.68 633.085C1411.32 633.699 1413.85 634.528 1416.28 635.574C1418.74 636.619 1420.93 637.937 1422.86 639.528C1424.82 641.119 1426.36 643.039 1427.5 645.289C1428.64 647.539 1429.2 650.176 1429.2 653.199C1429.2 657.289 1428.16 660.892 1426.07 664.005C1423.98 667.096 1420.95 669.517 1417 671.267C1413.07 672.994 1408.31 673.858 1402.72 673.858C1397.28 673.858 1392.57 673.017 1388.57 671.335C1384.59 669.653 1381.48 667.199 1379.23 663.971C1377 660.744 1375.8 656.812 1375.61 652.176H1388.06C1388.24 654.608 1388.99 656.63 1390.31 658.244C1391.63 659.858 1393.34 661.062 1395.45 661.858C1397.59 662.653 1399.98 663.051 1402.61 663.051C1405.36 663.051 1407.77 662.642 1409.84 661.824C1411.93 660.983 1413.57 659.824 1414.75 658.346C1415.93 656.846 1416.53 655.096 1416.56 653.096C1416.53 651.278 1416 649.778 1414.95 648.596C1413.91 647.392 1412.44 646.392 1410.56 645.596C1408.69 644.778 1406.51 644.051 1404.01 643.414L1396.07 641.369C1390.32 639.892 1385.77 637.653 1382.43 634.653C1379.11 631.63 1377.45 627.619 1377.45 622.619C1377.45 618.505 1378.57 614.903 1380.8 611.812C1383.05 608.721 1386.1 606.324 1389.97 604.619C1393.83 602.892 1398.2 602.028 1403.09 602.028C1408.05 602.028 1412.39 602.892 1416.11 604.619C1419.86 606.324 1422.81 608.699 1424.94 611.744C1427.08 614.767 1428.18 618.244 1428.25 622.176H1416.08ZM1462.78 673.824C1457.66 673.824 1453.23 672.699 1449.48 670.449C1445.73 668.199 1442.82 665.051 1440.75 661.005C1438.71 656.96 1437.68 652.233 1437.68 646.824C1437.68 641.414 1438.71 636.676 1440.75 632.608C1442.82 628.539 1445.73 625.38 1449.48 623.13C1453.23 620.88 1457.66 619.755 1462.78 619.755C1467.89 619.755 1472.32 620.88 1476.07 623.13C1479.82 625.38 1482.72 628.539 1484.76 632.608C1486.83 636.676 1487.87 641.414 1487.87 646.824C1487.87 652.233 1486.83 656.96 1484.76 661.005C1482.72 665.051 1479.82 668.199 1476.07 670.449C1472.32 672.699 1467.89 673.824 1462.78 673.824ZM1462.84 663.937C1465.62 663.937 1467.93 663.176 1469.8 661.653C1471.66 660.108 1473.05 658.039 1473.96 655.449C1474.89 652.858 1475.36 649.971 1475.36 646.789C1475.36 643.585 1474.89 640.687 1473.96 638.096C1473.05 635.483 1471.66 633.403 1469.8 631.858C1467.93 630.312 1465.62 629.539 1462.84 629.539C1460 629.539 1457.64 630.312 1455.75 631.858C1453.89 633.403 1452.49 635.483 1451.56 638.096C1450.65 640.687 1450.2 643.585 1450.2 646.789C1450.2 649.971 1450.65 652.858 1451.56 655.449C1452.49 658.039 1453.89 660.108 1455.75 661.653C1457.64 663.176 1460 663.937 1462.84 663.937ZM1521.18 673.824C1516.07 673.824 1511.64 672.699 1507.89 670.449C1504.14 668.199 1501.23 665.051 1499.16 661.005C1497.11 656.96 1496.09 652.233 1496.09 646.824C1496.09 641.414 1497.11 636.676 1499.16 632.608C1501.23 628.539 1504.14 625.38 1507.89 623.13C1511.64 620.88 1516.07 619.755 1521.18 619.755C1526.3 619.755 1530.73 620.88 1534.48 623.13C1538.23 625.38 1541.13 628.539 1543.17 632.608C1545.24 636.676 1546.27 641.414 1546.27 646.824C1546.27 652.233 1545.24 656.96 1543.17 661.005C1541.13 665.051 1538.23 668.199 1534.48 670.449C1530.73 672.699 1526.3 673.824 1521.18 673.824ZM1521.25 663.937C1524.02 663.937 1526.34 663.176 1528.2 661.653C1530.07 660.108 1531.45 658.039 1532.36 655.449C1533.3 652.858 1533.76 649.971 1533.76 646.789C1533.76 643.585 1533.3 640.687 1532.36 638.096C1531.45 635.483 1530.07 633.403 1528.2 631.858C1526.34 630.312 1524.02 629.539 1521.25 629.539C1518.41 629.539 1516.05 630.312 1514.16 631.858C1512.3 633.403 1510.9 635.483 1509.97 638.096C1509.06 640.687 1508.6 643.585 1508.6 646.789C1508.6 649.971 1509.06 652.858 1509.97 655.449C1510.9 658.039 1512.3 660.108 1514.16 661.653C1516.05 663.176 1518.41 663.937 1521.25 663.937ZM1569.09 642.119V672.801H1556.75V620.437H1568.54V629.335H1569.16C1570.36 626.403 1572.28 624.074 1574.92 622.346C1577.58 620.619 1580.86 619.755 1584.77 619.755C1588.38 619.755 1591.53 620.528 1594.21 622.074C1596.92 623.619 1599.01 625.858 1600.49 628.789C1601.99 631.721 1602.72 635.278 1602.7 639.46V672.801H1590.36V641.369C1590.36 637.869 1589.45 635.13 1587.63 633.153C1585.84 631.176 1583.35 630.187 1580.17 630.187C1578.01 630.187 1576.09 630.664 1574.41 631.619C1572.75 632.551 1571.44 633.903 1570.49 635.676C1569.55 637.449 1569.09 639.596 1569.09 642.119Z" fill="black"/>
<path d="M2043.35 509.672C2043.35 504.241 2042.25 498.865 2040.11 493.848C2037.96 488.831 2034.82 484.273 2030.86 480.433C2026.9 476.593 2022.2 473.548 2017.03 471.47C2011.85 469.392 2006.31 468.322 2000.71 468.322H954.479C948.879 468.322 943.334 469.392 938.16 471.47C932.986 473.548 928.286 476.594 924.326 480.433C920.366 484.273 917.225 488.831 915.082 493.848C912.939 498.865 911.836 504.241 911.836 509.672V527.92H2043.35V509.672Z" fill="#FDBD43" stroke="#1A1A1A" stroke-width="2.099" stroke-linecap="round" stroke-linejoin="round"/>
<path d="M2023.03 846.008H932.153C920.932 846.008 911.836 854.828 911.836 865.708V1009.89C911.836 1020.77 920.932 1029.59 932.153 1029.59H2023.03C2034.26 1029.59 2043.35 1020.77 2043.35 1009.89V865.708C2043.35 854.828 2034.26 846.008 2023.03 846.008Z" fill="#F4F3F2" stroke="#1A1A1A" stroke-width="4.198" stroke-linecap="round" stroke-linejoin="round"/>
<path d="M1362.27 2043.56C1335.58 2019.43 1306.16 1989.1 1312.41 1954.24C1317.13 1927.94 1340.77 1909.53 1357.48 1888.31C1380.57 1858.96 1391.35 1819.87 1382.63 1783.94C1373.91 1748 1344.44 1716.62 1307.36 1708.27C1270.27 1699.92 1227.66 1717.23 1210.8 1750.33C1197.58 1776.27 1200.58 1806.76 1197.85 1835.57C1195.13 1864.38 1182.4 1896.72 1153.92 1905.33C1130.13 1912.52 1104.93 1900.17 1084.64 1886.14C1064.36 1872.12 1044.22 1855.38 1019.5 1852.3C990.494 1848.69 961.48 1866.16 946.791 1890.68C932.101 1915.2 930.058 1945.32 935.209 1973.23C940.359 2001.15 952.15 2027.44 963.847 2053.42L886.94 2138.86L861.702 2423.72H1125.94C1153.18 2411.79 1178.62 2396.12 1203.87 2380.5C1224.73 2367.6 1245.6 2354.69 1266.46 2341.79C1280.58 2333.06 1296.24 2321.9 1297.18 2305.69C1299.08 2272.81 1241.33 2260.1 1242.28 2227.18C1242.66 2213.77 1253.84 2202.49 1266.58 2197.24C1279.32 2191.99 1293.51 2191.49 1307.32 2190.63C1328.49 2189.32 1350.04 2186.89 1369.27 2178.23C1388.51 2169.56 1405.33 2153.66 1409.9 2133.57C1417.75 2099.02 1388.96 2067.69 1362.27 2043.56Z" fill="#FDBD43" stroke="#1A1A1A" stroke-width="2.099" stroke-linecap="round" stroke-linejoin="round"/>
<path d="M1250.42 1884.28C1250.42 1884.28 1222.48 2041.8 1135.62 2119.3C1048.76 2196.79 1033.83 2300.6 1037.56 2346.47C1041.29 2392.33 997.727 2423.72 997.727 2423.72M1149.59 2278.87C1149.59 2278.87 1071.64 2252.87 1039.66 2298.46M1048.76 2078.36C1048.76 2078.36 1085.63 2095.71 1083.38 2180.65M1259.13 2041.09C1259.13 2041.09 1232.82 2078.31 1166.93 2085.05" stroke="white" stroke-width="6.297" stroke-linecap="round" stroke-linejoin="round"/>
<path d="M979.483 2358.05C1006.91 2305.87 979.334 2264.45 933.783 2235.68C888.796 2195.11 922.711 2168.49 962.725 2143.83C1034.63 2082.94 963.071 1972.02 875.067 2008.45C843.443 2023.3 806.722 2065.87 769.84 2040.98C748.647 2024.71 755.644 1992.96 757.909 1966.84C764.951 1901.33 714.02 1807.95 636.978 1819.94C602.663 1828.27 583.108 1864.15 551.184 1878.92C456.856 1918.64 383.687 1789.89 291.735 1798.27C113.469 1837.03 170.024 2139.29 425.346 2101.96C445.745 2103.59 467.085 2111.07 478.485 2127.56C515.547 2183.94 420.72 2250.69 456.157 2307.33C487.051 2350.38 548.384 2328.16 593.25 2327.26C656.202 2325.39 681.319 2378.68 646.506 2423.72H891.046C927.712 2411.64 960.791 2392.25 979.483 2358.05Z" fill="#F4F3F2" stroke="#1A1A1A" stroke-width="4.198" stroke-linecap="round" stroke-linejoin="round"/>
<path d="M729.785 2423.72L749.391 2387.5C835.281 2099.63 385.289 1949.35 385.289 1949.35M790.469 2161.19C790.469 2161.19 800.784 2225.42 754.237 2263.01ZM600.638 1949.35C601.883 1952.37 638.409 2011.76 608.632 2067.16ZM604.995 2155.16C604.995 2155.16 683.674 2146.33 712.176 2170.96ZM405.206 1994.01C405.206 1994.01 448.084 2007.34 486.706 1992.83Z" fill="#F4F3F2"/>
<path d="M729.785 2423.72L749.391 2387.5C835.281 2099.63 385.289 1949.35 385.289 1949.35M790.469 2161.19C790.469 2161.19 800.784 2225.42 754.237 2263.01M600.638 1949.35C601.883 1952.37 638.409 2011.76 608.632 2067.16M604.995 2155.16C604.995 2155.16 683.674 2146.33 712.176 2170.96M405.206 1994.01C405.206 1994.01 448.084 2007.34 486.706 1992.83" stroke="#1A1A1A" stroke-width="4.198" stroke-linecap="round" stroke-linejoin="round"/>
<path d="M66 2423.93H2934" stroke="#1A1A1A" stroke-width="6.297" stroke-linecap="round" stroke-linejoin="round"/>
<path d="M1083.62 1288.72L1104.5 1244.08L1144.9 1262.97L1125.16 1306.91L1083.62 1288.72Z" fill="#FDBD43" stroke="#1A1A1A" stroke-width="2.099" stroke-linecap="round" stroke-linejoin="round"/>
<path d="M1709.76 2479.69C1706.34 2468.89 1702.23 2456.41 1701.19 2455.4C1699.32 2453.59 1641.91 2455.4 1641.91 2455.4C1641.91 2455.4 1632.98 2459.58 1619.67 2466.06C1641.72 2491.39 1676.18 2489.62 1709.76 2479.69Z" fill="#FDBD43" stroke="#1A1A1A" stroke-width="2.099" stroke-linecap="round" stroke-linejoin="round"/>
<path d="M1719.08 2527.07C1719.87 2519.7 1718.68 2509.69 1714.73 2495.68C1714.73 2495.68 1712.46 2488.2 1709.76 2479.69C1676.18 2489.62 1641.72 2491.39 1619.67 2466.06C1582.67 2484.07 1511.75 2519.82 1504.2 2532.8C1499.53 2540.83 1497.09 2550.93 1498.67 2559.5C1572.31 2565.94 1652.6 2558.43 1719.08 2527.07Z" fill="#F4F3F2" stroke="#1A1A1A" stroke-width="4.198" stroke-linecap="round" stroke-linejoin="round"/>
<path d="M1498.67 2559.5C1500.56 2569.77 1508.21 2577.86 1524.74 2577.61C1555.08 2577.16 1666.19 2559.98 1688.59 2552.26C1703.46 2547.14 1717.15 2544.94 1719.08 2527.07C1652.6 2558.43 1572.31 2565.94 1498.67 2559.5Z" fill="#F4F3F2" stroke="#1A1A1A" stroke-width="4.198" stroke-linecap="round" stroke-linejoin="round"/>
<path d="M2496.47 2405.44C2482.03 2391.07 2469.07 2380.26 2469.07 2380.26L2393.45 2416.02C2393.45 2416.02 2382.39 2426.19 2367.74 2439.72C2414.48 2450.7 2468.22 2439.65 2496.47 2405.44Z" fill="#FDBD43" stroke="#1A1A1A" stroke-width="2.099" stroke-linecap="round" stroke-linejoin="round"/>
<path d="M2354.25 2531.25C2331.92 2537.44 2307.16 2540.08 2283.66 2535.64C2284.44 2538.29 2285.57 2540.84 2287.02 2543.21C2295.89 2558.15 2354.71 2545.47 2413.52 2525.56C2467.89 2507.15 2534.21 2482.94 2533.62 2456.86C2487.19 2503.85 2414.07 2509.5 2354.25 2531.25Z" fill="#F4F3F2" stroke="#1A1A1A" stroke-width="4.198" stroke-linecap="round" stroke-linejoin="round"/>
<path d="M2496.47 2405.44C2468.22 2439.65 2414.48 2450.7 2367.74 2439.72C2342.67 2462.87 2307.06 2495.88 2298.22 2504.74C2286.73 2516.25 2280.6 2524.72 2283.66 2535.64C2307.16 2540.08 2331.92 2537.44 2354.25 2531.25C2414.07 2509.5 2487.19 2503.85 2533.62 2456.86C2533.56 2454.64 2533.04 2452.45 2532.09 2450.42C2525.67 2436.43 2510.39 2419.28 2496.47 2405.44Z" fill="#F4F3F2" stroke="#1A1A1A" stroke-width="4.198" stroke-linecap="round" stroke-linejoin="round"/>
<path d="M2075.72 1744.16C2099.37 1966.25 2368.24 2414.66 2373.84 2420.09C2379.45 2425.53 2461.6 2430.96 2474.67 2392.94C2487.74 2354.91 2399.98 2068.85 2368.24 1971.08C2390.65 1867.88 2398.12 1583.62 2340.23 1471.02C2282.35 1358.42 2194.59 1344.63 2194.59 1344.63L2043.35 1393.51" fill="#F4F3F2"/>
<path d="M2075.72 1744.16C2099.37 1966.25 2368.24 2414.66 2373.84 2420.09C2379.45 2425.53 2461.6 2430.96 2474.67 2392.94C2487.74 2354.91 2399.98 2068.85 2368.24 1971.08C2390.65 1867.88 2398.12 1583.62 2340.23 1471.02C2282.35 1358.42 2194.59 1344.63 2194.59 1344.63L2043.35 1393.51" stroke="#1A1A1A" stroke-width="4.198" stroke-linecap="round" stroke-linejoin="round"/>
<path d="M2208.7 1513.91C2208.7 1513.91 2245.01 1583.62 2172.19 1699.5C2083.48 1840.66 1836.72 1897.45 1767.63 1919.18C1786.92 2071.26 1732.15 2417.68 1703.52 2470.79C1673.65 2490.1 1628.84 2462.34 1628.84 2462.34C1628.84 2462.34 1549.17 2067.64 1586.51 1856.41C1623.86 1645.18 1958.71 1455.67 1958.71 1455.67L2119.91 1393.51" fill="#F4F3F2"/>
<path d="M2208.7 1513.91C2208.7 1513.91 2245.01 1583.62 2172.19 1699.5C2083.48 1840.66 1836.72 1897.45 1767.63 1919.18C1786.92 2071.26 1732.15 2417.68 1703.52 2470.79C1673.65 2490.1 1628.84 2462.34 1628.84 2462.34C1628.84 2462.34 1549.17 2067.64 1586.51 1856.41C1623.86 1645.18 1958.71 1455.67 1958.71 1455.67L2119.91 1393.51" stroke="#1A1A1A" stroke-width="4.198" stroke-linecap="round" stroke-linejoin="round"/>
<path d="M1927.31 1474.71C1927.31 1474.71 2021.46 1496.37 2077.57 1476.78C2133.68 1457.19 2199.19 1428.9 2208.7 1378.85L2208.51 1354.14L1946.65 1455.02L1927.31 1474.71Z" fill="#FDBD43" stroke="#1A1A1A" stroke-width="2.099" stroke-linecap="round" stroke-linejoin="round"/>
<path d="M1872.5 913.717C1872.5 913.717 1841.7 848.537 1846.36 818.663C1851.03 788.789 1918.25 755.294 1847.3 694.641C1776.34 633.987 1727.8 702.788 1723.13 733.567C1718.46 764.347 1718.46 816.853 1775.41 830.432L1773.54 931.823" fill="#F4F3F2"/>
<path d="M1872.5 913.717C1872.5 913.717 1841.7 848.537 1846.36 818.663C1851.03 788.789 1918.25 755.294 1847.3 694.641C1776.34 633.987 1727.8 702.788 1723.13 733.567C1718.46 764.347 1718.46 816.853 1775.41 830.432L1773.54 931.823" stroke="#1A1A1A" stroke-width="4.198" stroke-linecap="round" stroke-linejoin="round"/>
<path d="M1796.78 826.312L1775.41 830.433L1775.24 839.614L1796.78 826.312Z" fill="#FDBD43" stroke="#1A1A1A" stroke-width="2.099" stroke-linecap="round" stroke-linejoin="round"/>
<path d="M2125.97 582.386C2125.97 582.386 2083.96 528.522 2033.55 525.806C1983.13 523.09 1973.8 546.175 1985.47 559.754C1997.14 573.333 2026.55 577.86 2033.08 577.86C2039.62 577.86 2013.48 590.986 2015.81 596.418C2018.14 601.849 2040.08 598.681 2051.29 594.607C2062.49 590.533 2084.43 589.176 2090.03 597.323C2095.63 605.47 2125.97 582.386 2125.97 582.386Z" fill="#F4F3F2" stroke="#1A1A1A" stroke-width="4.198" stroke-linecap="round" stroke-linejoin="round"/>
<path d="M1887.44 918.243C1887.44 918.243 2060.16 939.97 2104.97 866.642C2149.78 793.315 2129.81 662.19 2082.56 607.734C2071.52 596.785 2083.5 585.102 2097.5 579.67C2111.5 574.239 2126.44 564.281 2148.85 595.06C2171.25 625.839 2262.75 775.21 2244.59 914.622C2227.91 1042.68 2167.52 1108.35 2082.56 1118.31C1992.94 1033.21 1887.44 918.243 1887.44 918.243Z" fill="#FDBD43" stroke="#1A1A1A" stroke-width="4.198" stroke-linecap="round" stroke-linejoin="round"/>
<path d="M1199.38 828.168C1199.38 828.168 1146.17 763.894 1144.3 737.641C1142.43 711.388 1148.04 697.809 1164.84 693.735C1181.64 689.661 1188.18 715.009 1201.25 720.441C1214.32 725.872 1232.53 705.503 1235.33 722.251C1238.13 738.999 1214.79 772.946 1216.65 791.505C1218.52 810.063 1226.46 815.494 1226.46 815.494L1199.38 828.168Z" fill="#F4F3F2" stroke="#1A1A1A" stroke-width="4.198" stroke-linecap="round" stroke-linejoin="round"/>
<path d="M1809.95 1129.17C1405.71 1203.41 1191.81 836.598 1187.74 828.307C1183.66 820.016 1211.02 794.973 1224.28 801.463C1237.54 807.954 1496.27 939.97 1703.52 929.107C1764.21 925.516 1770.28 925.033 1792.21 916.433C1814.15 907.833 1876.24 892.896 1893.51 906.023C1910.78 919.149 1979.87 958.076 2071.36 1070.33C2162.85 1182.58 2217 1339.2 2207.66 1367.26C2198.33 1395.32 2121.77 1478.61 1964.93 1470.46C1851.96 1461.41 1664.43 1269.92 1623.35 1132.31" fill="#FDBD43"/>
<path d="M1809.95 1129.17C1405.71 1203.41 1191.81 836.598 1187.74 828.307C1183.66 820.016 1211.02 794.973 1224.28 801.463C1237.54 807.954 1496.27 939.97 1703.52 929.107C1764.21 925.516 1770.28 925.033 1792.21 916.433C1814.15 907.833 1876.24 892.896 1893.51 906.023C1910.78 919.149 1979.87 958.076 2071.36 1070.33C2162.85 1182.58 2217 1339.2 2207.66 1367.26C2198.33 1395.32 2121.77 1478.61 1964.93 1470.46C1851.96 1461.41 1664.43 1269.92 1623.35 1132.31" stroke="#1A1A1A" stroke-width="4.198" stroke-linecap="round" stroke-linejoin="round"/>
<path d="M1725.51 677.963C1720.46 636.507 1770.84 611.4 1807.48 626.592C1860.57 641.42 1864.3 710.573 1913.53 728.722C1926.53 732.603 1940.78 730.875 1953.74 734.855C1995.83 748.276 1998.09 804.635 1968.03 831.499C1930.54 869.196 1846.44 877.928 1828.11 817.538C1820.9 798.251 1800.36 775.943 1832.89 768.688C1864.89 754.287 1853.14 719.232 1817.55 731.265C1800.31 730.612 1783.94 721.806 1767.91 716.107C1748.13 711.024 1727.82 699.752 1725.51 677.963Z" fill="#FDBD43" stroke="#1A1A1A" stroke-width="2.099" stroke-linecap="round" stroke-linejoin="round"/>
<path d="M2659.21 1081.46H2439.26V1149.08H2659.21V1081.46Z" fill="#F4F3F2" stroke="#1A1A1A" stroke-width="4.198" stroke-linecap="round" stroke-linejoin="round"/>
<path d="M2571.68 1177.94H2439.26V1227.54H2571.68V1177.94Z" fill="#F4F3F2" stroke="#1A1A1A" stroke-width="4.198" stroke-linecap="round" stroke-linejoin="round"/>
<path d="M2420.06 1073.48H2398.12V1235.01H2420.06V1073.48Z" fill="#F4F3F2" stroke="#1A1A1A" stroke-width="4.198" stroke-linecap="round" stroke-linejoin="round"/>
<path d="M501.143 991.892H190.79V1195.19H501.143V991.892Z" fill="#F4F3F2" stroke="#1A1A1A" stroke-width="4.198" stroke-linecap="round" stroke-linejoin="round"/>
<path d="M279.187 1126.94L325.59 1049.01L371.993 1126.94H279.187Z" fill="#F4F3F2" stroke="#1A1A1A" stroke-width="4.198" stroke-linecap="round" stroke-linejoin="round"/>
<path d="M382.519 1130.16C405.329 1130.16 423.821 1111.82 423.821 1089.18C423.821 1066.55 405.329 1048.21 382.519 1048.21C359.708 1048.21 341.217 1066.55 341.217 1089.18C341.217 1111.82 359.708 1130.16 382.519 1130.16Z" fill="#FDBD43" stroke="#1A1A1A" stroke-width="2.099" stroke-linecap="round" stroke-linejoin="round"/>
<path d="M2697.27 475.417C2698.66 481.262 2701.42 486.716 2705.35 491.351C2709.27 495.986 2714.25 499.676 2719.9 502.132L2695.51 507.38L2676.33 494.787L2536.47 524.886L2566.24 544.496L2752.48 504.419L2752.75 504.214C2774.53 497.838 2788.13 477.316 2783.45 456.871C2778.53 435.373 2755.24 422.082 2731.45 427.201C2707.64 432.325 2692.35 453.919 2697.27 475.417ZM2773.41 459.032C2777.19 475.543 2765.46 492.118 2747.21 496.047C2728.95 499.976 2711.07 489.772 2707.29 473.261C2703.52 456.77 2715.27 440.19 2733.52 436.262C2751.78 432.333 2769.64 442.541 2773.41 459.032Z" fill="#F4F3F2" stroke="#1A1A1A" stroke-width="4.198" stroke-linecap="round" stroke-linejoin="round"/>
<path d="M2726.18 601.49C2749.82 607.243 2773.48 594.578 2779.01 573.219C2784.27 552.907 2771.26 532.03 2749.66 525.075L2749.4 524.863L2572.43 481.792L2534.05 498.639L2673.01 532.459L2692.54 520.383L2716.76 526.279C2711.05 528.584 2705.97 532.14 2701.91 536.668C2697.86 541.197 2694.94 546.575 2693.39 552.38C2687.86 573.739 2702.53 595.733 2726.18 601.49ZM2728.51 592.489C2710.38 588.074 2699.1 571.187 2703.34 554.803C2707.59 538.399 2725.75 528.676 2743.89 533.091C2762.03 537.506 2773.28 554.388 2769.04 570.792C2764.79 587.176 2746.65 596.903 2728.51 592.489Z" fill="#F4F3F2" stroke="#1A1A1A" stroke-width="4.198" stroke-linecap="round" stroke-linejoin="round"/>
<path d="M2665.18 524.72C2671.46 524.72 2676.55 519.785 2676.55 513.699C2676.55 507.612 2671.46 502.677 2665.18 502.677C2658.91 502.677 2653.82 507.612 2653.82 513.699C2653.82 519.785 2658.91 524.72 2665.18 524.72Z" fill="#F4F3F2" stroke="#1A1A1A" stroke-width="4.198" stroke-linecap="round" stroke-linejoin="round"/>
</svg>
