<svg xmlns="http://www.w3.org/2000/svg" xmlns:xlink="http://www.w3.org/1999/xlink" width="3000" height="2668" fill="none" xmlns:v="https://vecta.io/nano"><style><![CDATA[.B{fill:#f4f3f2}.C{stroke-width:4.198}.D{stroke-linejoin:round}.E{stroke:#1a1a1a}.F{fill:#fdbd43}.G{stroke-width:2.099}.H{stroke-linecap:round}.I{stroke-miterlimit:10}.J{stroke-width:6.297}]]></style><g class="B C D E"><path d="M1241.62 2423.71h1588.75s-130.22 236.24-858.39 218.83-653.45-128.7-653.45-128.7-306.21-3.82-347.237-36.22c-41.024-32.39-336.219 47.22-486.044 8.86-149.826-38.35 0-61.75 0-61.75l756.371-1.02z"/><path d="M275.012 2424.73H2834.93c128.7-279.12-29.24-562.98-224.07-611.61-176.44-44.05-425.2 94.34-492.93 355.77-32.22-29.96-119.67-102.85-249.27-114.07-160.39-13.88-320.61 72.28-414.52 219.99-26.26-24.28-296.51-265.61-672.187-195.54-322.89 60.22-481.892 305.37-506.941 345.46zM2744.23 1725.6c39.67 0 71.82-31.18 71.82-69.64s-32.15-69.64-71.82-69.64c-39.66 0-71.82 31.18-71.82 69.64s32.16 69.64 71.82 69.64z"/></g><path d="M2495.21 395.9c0-17.119-3.48-34.07-10.23-49.886-6.76-15.816-16.66-30.187-29.14-42.292-12.49-12.105-27.31-21.707-43.62-28.258s-33.79-9.923-51.45-9.923H751.258a138.08 138.08 0 0 0-51.447 9.923c-16.311 6.551-31.131 16.153-43.615 28.258s-22.386 26.476-29.142 42.292-10.234 32.767-10.234 49.886v7.242h1878.39V395.9z" class="D E F G"/><g class="B C D E"><path d="M616.82 403.142v908.898c0 17.12 3.478 34.07 10.234 49.88 6.756 15.82 16.658 30.19 29.142 42.3 12.484 12.1 27.304 21.7 43.615 28.25 16.311 6.56 33.792 9.93 51.447 9.93H2360.77c17.66 0 35.14-3.37 51.45-9.93 16.31-6.55 31.13-16.15 43.61-28.25 12.49-12.11 22.39-26.48 29.15-42.3 6.75-15.81 10.23-32.76 10.23-49.88V403.142H616.82z"/><path d="M2693.52 682.239h-282.1c-7.34 0-13.3 5.777-13.3 12.903v111.795c0 7.126 5.96 12.903 13.3 12.903h282.1c7.35 0 13.31-5.777 13.31-12.903V695.142c0-7.126-5.96-12.903-13.31-12.903z"/></g><path d="M2693.52 859.389h-282.1c-7.34 0-13.3 5.777-13.3 12.903v111.795c0 7.126 5.96 12.903 13.3 12.903h282.1c7.35 0 13.31-5.777 13.31-12.903V872.292c0-7.126-5.96-12.903-13.31-12.903z" class="D E F G"/><path d="M1795.64 828.621s-13.04 3.827-20.23 1.811z" class="B"/><g class="C D E H"><path d="M1795.64 828.621s-13.04 3.827-20.23 1.811M766.195 872.075s1.158 4.153 3.682 11.674"/><path d="M778.275 906.855c34.782 89.515 151.103 326.215 430.445 403.375 230.87 63.77 369.82 42.62 422.26 29.21" stroke-dasharray="25.27 25.27"/><path d="M1643.12 1336.05c7.92-2.42 11.86-4.1 11.86-4.1M833.414 403.142v12.212"/><path d="M833.414 440.106V1417.81" stroke-dasharray="25.53 25.53"/><path d="M833.414 1430.19v12.21M616.82 514.49h12.594"/><path d="M654.8 514.49H2469.92" stroke-dasharray="25.39 25.39"/><path d="M2482.62 514.49h12.59"/></g><g class="B"><use xlink:href="#B"/><use xlink:href="#C"/><use xlink:href="#D"/><use xlink:href="#E"/></g><g class="G"><g stroke="#fff" class="I"><use xlink:href="#B"/><use xlink:href="#C"/></g><use xlink:href="#D" class="D E F"/><use xlink:href="#E" stroke="#fff" class="I"/></g><g class="C D E"><use xlink:href="#B"/><use xlink:href="#C"/><use xlink:href="#D"/><use xlink:href="#E"/><path d="M544.002 708.22v-56.129h-59.719c-2.334-8.202-5.703-16.092-10.031-23.494l42.222-40.941-40.939-39.697-42.222 40.942c-7.633-4.197-15.77-7.464-24.228-9.728v-57.882h-57.859v57.882c-8.458 2.264-16.596 5.531-24.228 9.728l-42.223-40.942-40.939 39.697 42.223 40.941a101.72 101.72 0 0 0-10.032 23.494h-59.719v56.129h59.719a101.72 101.72 0 0 0 10.032 23.494l-42.223 40.941 40.939 39.697 42.223-40.941c7.632 4.196 15.77 7.463 24.228 9.727v57.882h57.859v-57.882a108.57 108.57 0 0 0 24.228-9.727l42.222 40.941 40.939-39.697-42.222-40.941c4.328-7.402 7.697-15.292 10.031-23.494h59.719zm-113.727 0c-5.082 8.534-12.39 15.62-21.19 20.547-4.373 2.469-9.069 4.357-13.961 5.613-9.816 2.54-20.148 2.54-29.964 0-4.883-1.256-9.57-3.144-13.934-5.613-13.287-7.462-22.993-19.713-27.005-34.084-1.288-4.741-1.94-9.624-1.938-14.527a54.25 54.25 0 0 1 1.964-14.528 53.89 53.89 0 0 1 5.789-13.537c5.089-8.528 12.395-15.613 21.19-20.547 4.364-2.469 9.051-4.357 13.934-5.613 9.816-2.54 20.148-2.54 29.964 0 4.892 1.256 9.588 3.144 13.961 5.613 8.795 4.934 16.101 12.019 21.19 20.547 2.546 4.24 4.493 8.793 5.788 13.537a54.25 54.25 0 0 1 1.965 14.527c.001 4.904-.65 9.787-1.939 14.528a54.93 54.93 0 0 1-5.814 13.537zm405.629-338.272c20.281 0 36.721-15.942 36.721-35.607s-16.44-35.607-36.721-35.607-36.721 15.942-36.721 35.607 16.441 35.607 36.721 35.607zm387.646-56.126H938.083c-4.528 0-8.198 3.559-8.198 7.95v31.175c0 4.391 3.67 7.95 8.198 7.95h285.467c4.53 0 8.2-3.559 8.2-7.95v-31.175c0-4.391-3.67-7.95-8.2-7.95zM911.836 527.919v210.468c0 10.966 4.493 21.484 12.49 29.238s18.843 12.111 30.153 12.111H2000.71c11.31 0 22.15-4.356 30.15-12.111s12.49-18.272 12.49-29.238V527.919H911.836z" class="B"/></g><path d="M1054.65 626.539h-12.75c-.37-2.09-1.04-3.943-2.01-5.556-.98-1.637-2.2-3.023-3.65-4.159-1.46-1.137-3.11-1.989-4.98-2.557-1.84-.591-3.83-.887-5.96-.887-3.8 0-7.16.955-10.1 2.864-2.93 1.886-5.22 4.659-6.88 8.318-1.66 3.637-2.49 8.08-2.49 13.33 0 5.341.83 9.841 2.49 13.5 1.68 3.636 3.98 6.386 6.88 8.25 2.94 1.841 6.29 2.761 10.06 2.761 2.09 0 4.05-.273 5.86-.818 1.85-.568 3.49-1.398 4.95-2.489 1.48-1.091 2.71-2.432 3.71-4.022 1.03-1.591 1.73-3.41 2.12-5.455l12.75.068a27.53 27.53 0 0 1-3.1 9.341c-1.57 2.909-3.63 5.477-6.17 7.705-2.55 2.204-5.53 3.931-8.94 5.181-3.41 1.228-7.19 1.841-11.35 1.841-6.14 0-11.61-1.42-16.43-4.261s-8.61-6.943-11.387-12.307-4.159-11.795-4.159-19.295c0-7.523 1.397-13.955 4.193-19.296 2.793-5.363 6.603-9.466 11.423-12.307s10.27-4.261 16.36-4.261c3.89 0 7.5.546 10.84 1.636s6.32 2.694 8.93 4.807c2.62 2.091 4.77 4.659 6.45 7.705 1.7 3.023 2.82 6.477 3.34 10.363zm33.88 47.285c-5.12 0-9.55-1.125-13.3-3.375s-6.66-5.398-8.73-9.444c-2.04-4.045-3.07-8.772-3.07-14.181s1.03-10.148 3.07-14.216c2.07-4.069 4.98-7.228 8.73-9.478s8.18-3.375 13.3-3.375c5.11 0 9.54 1.125 13.29 3.375s6.65 5.409 8.69 9.478c2.07 4.068 3.11 8.806 3.11 14.216s-1.04 10.136-3.11 14.181c-2.04 4.046-4.94 7.194-8.69 9.444s-8.18 3.375-13.29 3.375zm.06-9.887c2.78 0 5.09-.761 6.96-2.284 1.86-1.545 3.25-3.614 4.16-6.204.93-2.591 1.4-5.478 1.4-8.66 0-3.204-.47-6.102-1.4-8.693-.91-2.613-2.3-4.693-4.16-6.238-1.87-1.546-4.18-2.319-6.96-2.319-2.84 0-5.2.773-7.09 2.319-1.86 1.545-3.26 3.625-4.19 6.238-.91 2.591-1.36 5.489-1.36 8.693 0 3.182.45 6.069 1.36 8.66.93 2.59 2.33 4.659 4.19 6.204 1.89 1.523 4.25 2.284 7.09 2.284zm35.5 8.864v-52.364h11.8v8.898h.61c1.09-3 2.9-5.341 5.42-7.023 2.52-1.704 5.53-2.557 9.03-2.557 3.55 0 6.54.864 8.97 2.591 2.46 1.705 4.18 4.034 5.18 6.989h.55c1.16-2.909 3.11-5.227 5.86-6.955 2.77-1.75 6.06-2.625 9.85-2.625 4.82 0 8.75 1.523 11.8 4.569 3.04 3.045 4.57 7.488 4.57 13.329v35.148h-12.38v-33.239c0-3.25-.86-5.625-2.59-7.125-1.73-1.523-3.84-2.284-6.34-2.284-2.98 0-5.31.932-6.99 2.796-1.66 1.84-2.49 4.238-2.49 7.193v32.659h-12.1v-33.75c0-2.705-.82-4.864-2.45-6.477-1.62-1.614-3.73-2.421-6.34-2.421-1.78 0-3.39.455-4.85 1.364-1.45.886-2.61 2.147-3.47 3.784-.87 1.613-1.3 3.5-1.3 5.659v31.841h-12.34zm86.16 0v-52.364h12.34v52.364h-12.34zm6.2-59.796c-1.95 0-3.63-.647-5.04-1.943-1.41-1.318-2.12-2.898-2.12-4.738 0-1.864.71-3.444 2.12-4.739 1.41-1.318 3.09-1.977 5.04-1.977 1.98 0 3.66.659 5.05 1.977 1.41 1.295 2.11 2.875 2.11 4.739 0 1.84-.7 3.42-2.11 4.738-1.39 1.296-3.07 1.943-5.05 1.943zm31.17 29.114v30.682h-12.34v-52.364h11.79v8.898h.62c1.2-2.932 3.12-5.261 5.76-6.989 2.66-1.727 5.94-2.591 9.85-2.591 3.61 0 6.76.773 9.44 2.319 2.71 1.545 4.8 3.784 6.28 6.715 1.5 2.932 2.24 6.489 2.21 10.671v33.341h-12.34v-31.432c0-3.5-.91-6.239-2.73-8.216-1.79-1.977-4.28-2.966-7.46-2.966-2.16 0-4.08.477-5.76 1.432-1.66.932-2.97 2.284-3.92 4.057-.93 1.773-1.4 3.92-1.4 6.443zm68.93 51.409c-4.43 0-8.24-.602-11.42-1.807-3.18-1.182-5.74-2.772-7.67-4.772s-3.27-4.216-4.02-6.648l11.11-2.693c.5 1.022 1.23 2.034 2.18 3.034.96 1.022 2.24 1.863 3.86 2.522 1.63.682 3.69 1.023 6.17 1.023 3.5 0 6.39-.852 8.69-2.557 2.29-1.681 3.44-4.454 3.44-8.318v-9.92h-.61c-.64 1.272-1.57 2.579-2.8 3.92-1.2 1.341-2.8 2.466-4.8 3.375-1.98.909-4.47 1.364-7.47 1.364-4.02 0-7.67-.943-10.94-2.83-3.25-1.909-5.84-4.75-7.78-8.522-1.9-3.796-2.86-8.546-2.86-14.25 0-5.75.96-10.603 2.86-14.557 1.94-3.978 4.54-6.989 7.81-9.034 3.27-2.069 6.92-3.103 10.94-3.103 3.07 0 5.6.523 7.57 1.569 2 1.022 3.59 2.261 4.78 3.715 1.18 1.432 2.07 2.785 2.69 4.057h.68v-8.659h12.17v53.216c0 4.477-1.07 8.182-3.2 11.114-2.14 2.932-5.06 5.125-8.77 6.579-3.7 1.455-7.9 2.182-12.61 2.182zm.1-31.159c2.62 0 4.84-.636 6.69-1.909 1.84-1.273 3.23-3.102 4.19-5.489.95-2.386 1.43-5.25 1.43-8.591 0-3.295-.48-6.181-1.43-8.659-.93-2.477-2.32-4.397-4.16-5.761-1.82-1.386-4.06-2.08-6.72-2.08-2.75 0-5.04.716-6.88 2.148s-3.23 3.398-4.16 5.898c-.93 2.477-1.4 5.295-1.4 8.454 0 3.205.47 6.012 1.4 8.421.95 2.386 2.35 4.25 4.19 5.591 1.86 1.318 4.15 1.977 6.85 1.977zm99.43-40.193c-.32-2.977-1.66-5.296-4.02-6.955-2.34-1.659-5.39-2.488-9.14-2.488-2.64 0-4.9.397-6.78 1.193-1.89.795-3.33 1.875-4.33 3.238s-1.51 2.921-1.54 4.671c0 1.454.33 2.716.99 3.784.68 1.068 1.6 1.977 2.76 2.727 1.16.728 2.45 1.341 3.86 1.841a40.2 40.2 0 0 0 4.26 1.262l6.54 1.636c2.64.614 5.17 1.443 7.6 2.489 2.46 1.045 4.65 2.363 6.58 3.954 1.96 1.591 3.5 3.511 4.64 5.761s1.7 4.887 1.7 7.91c0 4.09-1.04 7.693-3.13 10.806-2.09 3.091-5.12 5.512-9.07 7.262-3.93 1.727-8.69 2.591-14.28 2.591-5.44 0-10.15-.841-14.15-2.523-3.98-1.682-7.09-4.136-9.34-7.364-2.23-3.227-3.43-7.159-3.62-11.795h12.45c.18 2.432.93 4.454 2.25 6.068s3.03 2.818 5.14 3.614c2.14.795 4.53 1.193 7.16 1.193 2.75 0 5.16-.409 7.23-1.227 2.09-.841 3.73-2 4.91-3.478 1.18-1.5 1.78-3.25 1.81-5.25-.03-1.818-.56-3.318-1.61-4.5-1.04-1.204-2.51-2.204-4.39-3-1.87-.818-4.05-1.545-6.55-2.182l-7.94-2.045c-5.75-1.477-10.3-3.716-13.64-6.716-3.32-3.023-4.98-7.034-4.98-12.034 0-4.114 1.12-7.716 3.35-10.807 2.25-3.091 5.3-5.488 9.17-7.193 3.86-1.727 8.23-2.591 13.12-2.591 4.96 0 9.3.864 13.02 2.591 3.75 1.705 6.7 4.08 8.83 7.125 2.14 3.023 3.24 6.5 3.31 10.432h-12.17zm46.7 51.648c-5.12 0-9.55-1.125-13.3-3.375s-6.66-5.398-8.73-9.444c-2.04-4.045-3.07-8.772-3.07-14.181s1.03-10.148 3.07-14.216c2.07-4.069 4.98-7.228 8.73-9.478s8.18-3.375 13.3-3.375c5.11 0 9.54 1.125 13.29 3.375s6.65 5.409 8.69 9.478c2.07 4.068 3.11 8.806 3.11 14.216s-1.04 10.136-3.11 14.181c-2.04 4.046-4.94 7.194-8.69 9.444s-8.18 3.375-13.29 3.375zm.06-9.887c2.78 0 5.09-.761 6.96-2.284 1.86-1.545 3.25-3.614 4.16-6.204.93-2.591 1.4-5.478 1.4-8.66 0-3.204-.47-6.102-1.4-8.693-.91-2.613-2.3-4.693-4.16-6.238-1.87-1.546-4.18-2.319-6.96-2.319-2.84 0-5.2.773-7.09 2.319-1.86 1.545-3.26 3.625-4.19 6.238-.91 2.591-1.36 5.489-1.36 8.693 0 3.182.45 6.069 1.36 8.66.93 2.59 2.33 4.659 4.19 6.204 1.89 1.523 4.25 2.284 7.09 2.284zm58.34 9.887c-5.11 0-9.54-1.125-13.29-3.375s-6.66-5.398-8.73-9.444c-2.05-4.045-3.07-8.772-3.07-14.181s1.02-10.148 3.07-14.216c2.07-4.069 4.98-7.228 8.73-9.478s8.18-3.375 13.29-3.375c5.12 0 9.55 1.125 13.3 3.375s6.65 5.409 8.69 9.478c2.07 4.068 3.1 8.806 3.1 14.216s-1.03 10.136-3.1 14.181c-2.04 4.046-4.94 7.194-8.69 9.444s-8.18 3.375-13.3 3.375zm.07-9.887c2.77 0 5.09-.761 6.95-2.284 1.87-1.545 3.25-3.614 4.16-6.204.94-2.591 1.4-5.478 1.4-8.66 0-3.204-.46-6.102-1.4-8.693-.91-2.613-2.29-4.693-4.16-6.238-1.86-1.546-4.18-2.319-6.95-2.319-2.84 0-5.2.773-7.09 2.319-1.86 1.545-3.26 3.625-4.19 6.238-.91 2.591-1.37 5.489-1.37 8.693 0 3.182.46 6.069 1.37 8.66.93 2.59 2.33 4.659 4.19 6.204 1.89 1.523 4.25 2.284 7.09 2.284zm47.84-21.818v30.682h-12.34v-52.364h11.79v8.898h.62c1.2-2.932 3.12-5.261 5.76-6.989 2.66-1.727 5.94-2.591 9.85-2.591 3.61 0 6.76.773 9.44 2.319 2.71 1.545 4.8 3.784 6.28 6.715 1.5 2.932 2.23 6.489 2.21 10.671v33.341h-12.34v-31.432c0-3.5-.91-6.239-2.73-8.216-1.79-1.977-4.28-2.966-7.46-2.966-2.16 0-4.08.477-5.76 1.432-1.66.932-2.97 2.284-3.92 4.057-.94 1.773-1.4 3.92-1.4 6.443z" fill="#000"/><g class="D E"><path d="M2043.35 509.672a40.31 40.31 0 0 0-3.24-15.824c-2.15-5.017-5.29-9.575-9.25-13.415s-8.66-6.885-13.83-8.963c-5.18-2.078-10.72-3.148-16.32-3.148H954.479c-5.6 0-11.145 1.07-16.319 3.148s-9.874 5.124-13.834 8.963-7.101 8.398-9.244 13.415-3.246 10.393-3.246 15.824v18.248H2043.35v-18.248z" class="F G"/><path d="M2023.03 846.008H932.153c-11.221 0-20.317 8.82-20.317 19.7v144.182c0 10.88 9.096 19.7 20.317 19.7H2023.03c11.23 0 20.32-8.82 20.32-19.7V865.708c0-10.88-9.09-19.7-20.32-19.7z" class="B C"/><path d="M1362.27 2043.56c-26.69-24.13-56.11-54.46-49.86-89.32 4.72-26.3 28.36-44.71 45.07-65.93 23.09-29.35 33.87-68.44 25.15-104.37-8.72-35.94-38.19-67.32-75.27-75.67-37.09-8.35-79.7 8.96-96.56 42.06-13.22 25.94-10.22 56.43-12.95 85.24-2.72 28.81-15.45 61.15-43.93 69.76-23.79 7.19-48.99-5.16-69.28-19.19-20.28-14.02-40.42-30.76-65.14-33.84-29.006-3.61-58.02 13.86-72.709 38.38s-16.733 54.64-11.582 82.55c5.15 27.92 16.941 54.21 28.638 80.19l-76.907 85.44-25.238 284.86h264.238c27.24-11.93 52.68-27.6 77.93-43.22l62.59-38.71c14.12-8.73 29.78-19.89 30.72-36.1 1.9-32.88-55.85-45.59-54.9-78.51.38-13.41 11.56-24.69 24.3-29.94s26.93-5.75 40.74-6.61c21.17-1.31 42.72-3.74 61.95-12.4 19.24-8.67 36.06-24.57 40.63-44.66 7.85-34.55-20.94-65.88-47.63-90.01z" class="F G"/></g><path d="M1250.42 1884.28s-27.94 157.52-114.8 235.02c-86.86 77.49-101.79 181.3-98.06 227.17 3.73 45.86-39.833 77.25-39.833 77.25m151.863-144.85s-77.95-26-109.93 19.59m9.1-220.1s36.87 17.35 34.62 102.29m175.75-139.56s-26.31 37.22-92.2 43.96" stroke="#fff" class="D H J"/><g class="B"><path d="M979.483 2358.05c27.427-52.18-.149-93.6-45.7-122.37-44.987-40.57-11.072-67.19 28.942-91.85 71.905-60.89.346-171.81-87.658-135.38-31.624 14.85-68.345 57.42-105.227 32.53-21.193-16.27-14.196-48.02-11.931-74.14 7.042-65.51-43.889-158.89-120.931-146.9-34.315 8.33-53.87 44.21-85.794 58.98-94.328 39.72-167.497-89.03-259.449-80.65-178.266 38.76-121.711 341.02 133.611 303.69 20.399 1.63 41.739 9.11 53.139 25.6 37.062 56.38-57.765 123.13-22.328 179.77 30.894 43.05 92.227 20.83 137.093 19.93 62.952-1.87 88.069 51.42 53.256 96.46h244.54c36.666-12.08 69.745-31.47 88.437-65.67z" class="C D E"/><path d="M729.785 2423.72l19.606-36.22c85.89-287.87-364.102-438.15-364.102-438.15m405.18 211.84s10.315 64.23-36.232 101.82zm-189.831-211.84c1.245 3.02 37.771 62.41 7.994 117.81zm4.357 205.81s78.679-8.83 107.181 15.8zm-199.789-161.15s42.878 13.33 81.5-1.18z"/></g><g class="D E"><g class="H"><path d="M729.785 2423.72l19.606-36.22c85.89-287.87-364.102-438.15-364.102-438.15m405.18 211.84s10.315 64.23-36.232 101.82m-153.599-313.66c1.245 3.02 37.771 62.41 7.994 117.81m-3.637 88s78.679-8.83 107.181 15.8m-306.97-176.95s42.878 13.33 81.5-1.18" class="C"/><path d="M66 2423.93H2934" class="J"/></g><path d="M1083.62 1288.72l20.88-44.64 40.4 18.89-19.74 43.94-41.54-18.19zm626.14 1190.97c-3.42-10.8-7.53-23.28-8.57-24.29-1.87-1.81-59.28 0-59.28 0l-22.24 10.66c22.05 25.33 56.51 23.56 90.09 13.63z" class="F G"/><g class="B C"><path d="M1719.08 2527.07c.79-7.37-.4-17.38-4.35-31.39l-4.97-15.99c-33.58 9.93-68.04 11.7-90.09-13.63-37 18.01-107.92 53.76-115.47 66.74-4.67 8.03-7.11 18.13-5.53 26.7 73.64 6.44 153.93-1.07 220.41-32.43z"/><path d="M1498.67 2559.5c1.89 10.27 9.54 18.36 26.07 18.11 30.34-.45 141.45-17.63 163.85-25.35 14.87-5.12 28.56-7.32 30.49-25.19-66.48 31.36-146.77 38.87-220.41 32.43z"/></g><path d="M2496.47 2405.44c-14.44-14.37-27.4-25.18-27.4-25.18l-75.62 35.76-25.71 23.7c46.74 10.98 100.48-.07 128.73-34.28z" class="F G"/><g class="B C"><path d="M2354.25 2531.25c-22.33 6.19-47.09 8.83-70.59 4.39a31.63 31.63 0 0 0 3.36 7.57c8.87 14.94 67.69 2.26 126.5-17.65 54.37-18.41 120.69-42.62 120.1-68.7-46.43 46.99-119.55 52.64-179.37 74.39z"/><path d="M2496.47 2405.44c-28.25 34.21-81.99 45.26-128.73 34.28l-69.52 65.02c-11.49 11.51-17.62 19.98-14.56 30.9 23.5 4.44 48.26 1.8 70.59-4.39 59.82-21.75 132.94-27.4 179.37-74.39-.06-2.22-.58-4.41-1.53-6.44-6.42-13.99-21.7-31.14-35.62-44.98z"/></g></g><use xlink:href="#F" class="B"/><use xlink:href="#F" class="C D E H"/><use xlink:href="#G" class="B"/><g class="D E"><use xlink:href="#G" class="C H"/><path d="M1927.31 1474.71s94.15 21.66 150.26 2.07 121.62-47.88 131.13-97.93l-.19-24.71-261.86 100.88-19.34 19.69z" class="F G"/></g><use xlink:href="#H" class="B"/><g class="D E"><use xlink:href="#H" class="C H"/><path d="M1796.78 826.312l-21.37 4.121-.17 9.181 21.54-13.302z" class="F G"/><g class="C"><path d="M2125.97 582.386s-42.01-53.864-92.42-56.58c-50.42-2.716-59.75 20.369-48.08 33.948s41.08 18.106 47.61 18.106c6.54 0-19.6 13.126-17.27 18.558s24.27 2.263 35.48-1.811c11.2-4.074 33.14-5.431 38.74 2.716s35.94-14.937 35.94-14.937z" class="B"/><path d="M1887.44 918.243s172.72 21.727 217.53-51.601 24.84-204.452-22.41-258.908c-11.04-10.949.94-22.632 14.94-28.064s28.94-15.389 51.35 15.39c22.4 30.779 113.9 180.15 95.74 319.562-16.68 128.058-77.07 193.728-162.03 203.688-89.62-85.1-195.12-200.067-195.12-200.067z" class="F"/><path d="M1199.38 828.168s-53.21-64.274-55.08-90.527 3.74-39.832 20.54-43.906 23.34 21.274 36.41 26.706 31.28-14.938 34.08 1.81-20.54 50.695-18.68 69.254c1.87 18.558 9.81 23.989 9.81 23.989l-27.08 12.674z" class="B"/></g></g><use xlink:href="#I" class="F"/><g class="D E"><use xlink:href="#I" class="C H"/><path d="M1725.51 677.963c-5.05-41.456 45.33-66.563 81.97-51.371 53.09 14.828 56.82 83.981 106.05 102.13 13 3.881 27.25 2.153 40.21 6.133 42.09 13.421 44.35 69.78 14.29 96.644-37.49 37.697-121.59 46.429-139.92-13.961-7.21-19.287-27.75-41.595 4.78-48.85 32-14.401 20.25-49.456-15.34-37.423-17.24-.653-33.61-9.459-49.64-15.158-19.78-5.083-40.09-16.355-42.4-38.144z" class="F G"/><g class="B C"><path d="M2659.21 1081.46h-219.95v67.62h219.95v-67.62zm-87.53 96.48h-132.42v49.6h132.42v-49.6zm-151.62-104.46h-21.94v161.53h21.94v-161.53zM501.143 991.892H190.79v203.298h310.353V991.892z"/><path d="M279.187 1126.94l46.403-77.93 46.403 77.93h-92.806z"/></g><path d="M382.519 1130.16c22.81 0 41.302-18.34 41.302-40.98 0-22.63-18.492-40.97-41.302-40.97s-41.302 18.34-41.302 40.97c0 22.64 18.491 40.98 41.302 40.98z" class="F G"/><g class="B C"><path d="M2697.27 475.417c1.39 5.845 4.15 11.299 8.08 15.934 3.92 4.635 8.9 8.325 14.55 10.781l-24.39 5.248-19.18-12.593-139.86 30.099 29.77 19.61 186.24-40.077.27-.205c21.78-6.376 35.38-26.898 30.7-47.343-4.92-21.498-28.21-34.789-52-29.67-23.81 5.124-39.1 26.718-34.18 48.216zm76.14-16.385c3.78 16.511-7.95 33.086-26.2 37.015-18.26 3.929-36.14-6.275-39.92-22.786-3.77-16.491 7.98-33.071 26.23-36.999 18.26-3.929 36.12 6.279 39.89 22.77z"/><path d="M2726.18 601.49c23.64 5.753 47.3-6.912 52.83-28.271 5.26-20.312-7.75-41.189-29.35-48.144l-.26-.212-176.97-43.071-38.38 16.847 138.96 33.82 19.53-12.076 24.22 5.896c-5.71 2.305-10.79 5.861-14.85 10.389-4.05 4.529-6.97 9.907-8.52 15.712-5.53 21.359 9.14 43.353 32.79 49.11zm2.33-9.001c-18.13-4.415-29.41-21.302-25.17-37.686 4.25-16.404 22.41-26.127 40.55-21.712s29.39 21.297 25.15 37.701c-4.25 16.384-22.39 26.111-40.53 21.697z"/><path d="M2665.18 524.72c6.28 0 11.37-4.935 11.37-11.021s-5.09-11.022-11.37-11.022c-6.27 0-11.36 4.935-11.36 11.022s5.09 11.021 11.36 11.021z"/></g></g><defs ><path id="B" d="M528.205 1397.34l56.115 70.84 128.468-95.69-54.2-72.26-130.383 97.11z"/><path id="C" d="M809.069 1378.41l135.183-100.69-4.997-113.46-89.838 66.92c2.811 8.31 2.528 17.32-.802 25.46-3.329 8.13-9.494 14.88-17.422 19.06s-17.117 5.54-25.969 3.83-16.808-6.37-22.482-13.17c-5.674-6.81-8.709-15.33-8.575-24.08s3.426-17.18 9.305-23.82 13.973-11.07 22.873-12.53c8.901-1.45 18.045.17 25.842 4.58l90.378-67.32-111.765-33.93-135.183 100.69-11.669 86.29-5.36 3.99 54.2 72.26 7.275-5.42 89.006 11.34z"/><path id="D" d="M528.204 1397.34l-52.823 39.35 56.115 70.84 52.823-39.35-56.115-70.84z"/><path id="E" d="M475.381 1436.69L324.6 1548.99l56.115 70.84 150.782-112.31-56.116-70.83z"/><path id="F" d="M2075.72 1744.16c23.65 222.09 292.52 670.5 298.12 675.93 5.61 5.44 87.76 10.87 100.83-27.15 13.07-38.03-74.69-324.09-106.43-421.86 22.41-103.2 29.88-387.46-28.01-500.06-57.88-112.6-145.64-126.39-145.64-126.39l-151.24 48.88"/><path id="G" d="M2208.7 1513.91s36.31 69.71-36.51 185.59c-88.71 141.16-335.47 197.95-404.56 219.68 19.29 152.08-35.48 498.5-64.11 551.61-29.87 19.31-74.68-8.45-74.68-8.45s-79.67-394.7-42.33-605.93c37.35-211.23 372.2-400.74 372.2-400.74l161.2-62.16"/><path id="H" d="M1872.5 913.717s-30.8-65.18-26.14-95.054c4.67-29.874 71.89-63.369.94-124.022-70.96-60.654-119.5 8.147-124.17 38.926s-4.67 83.286 52.28 96.865l-1.87 101.391"/><path id="I" d="M1809.95 1129.17c-404.24 74.24-618.14-292.572-622.21-300.863-4.08-8.291 23.28-33.334 36.54-26.844s271.99 138.507 479.24 127.644c60.69-3.591 66.76-4.074 88.69-12.674 21.94-8.6 84.03-23.537 101.3-10.41s86.36 52.053 177.85 164.307 145.64 268.87 136.3 296.93c-9.33 28.06-85.89 111.35-242.73 103.2-112.97-9.05-300.5-200.54-341.58-338.15"/></defs></svg>