<svg xmlns="http://www.w3.org/2000/svg" viewBox="0 0 650 512" xmlns:v="https://vecta.io/nano"><g fill="#f6f6f6"><circle cx="337.969" cy="243.395" r="167.695"/><path d="M574.583 223.757v-18.11a13.021 13.021 0 0 0-13.021-13.021h-55.959a13.021 13.021 0 0 1-13.021-13.021v-18.11a13.021 13.021 0 0 1 13.021-13.021h21.451a13.021 13.021 0 0 0 13.021-13.021v-18.11a13.021 13.021 0 0 0-13.021-13.021H143.135a13.021 13.021 0 0 0-13.021 13.021v18.11a13.021 13.021 0 0 0 13.021 13.021h0a13.021 13.021 0 0 1 13.021 13.021v18.11a13.021 13.021 0 0 1-13.021 13.021H82.782a13.021 13.021 0 0 0-13.021 13.021v18.11a13.021 13.021 0 0 0 13.021 13.021h59.758a13.021 13.021 0 0 1 13.021 13.021v18.11c.319 16.571-35.83 13.021-43.021 13.021h-.048a13.021 13.021 0 0 0-13.021 13.021v18.11a13.021 13.021 0 0 0 13.021 13.021h32.859a13.021 13.021 0 0 1 13.021 13.021v18.11a13.021 13.021 0 0 1-13.021 13.021h-36.913a13.021 13.021 0 0 0-13.021 13.021v18.11a13.021 13.021 0 0 0 13.021 13.021h415.608a13.021 13.021 0 0 0 13.021-13.021v-18.11a13.021 13.021 0 0 0-13.021-13.021h-21.29a13.021 13.021 0 0 1-13.021-13.021v-18.11a13.021 13.021 0 0 1 13.021-13.021h36.62a13.021 13.021 0 0 0 13.021-13.021v-18.11a13.021 13.021 0 0 0-13.021-13.021H521.3a13.021 13.021 0 0 1-13.021-13.021v-18.11a13.021 13.021 0 0 1 13.021-13.021h40.263a13.021 13.021 0 0 0 13.021-13.021z"/></g><circle cx="340.677" cy="148.55" r="46.959" fill="#0b0b0b"/><g fill="none" stroke-linecap="round"><path stroke="#f9b22b" stroke-linejoin="round" stroke-width="4" d="M324.053 138.772q-.001-.087-.001-.174a16.626 16.626 0 1 1 16.867 16.624v15.097"/><path d="M419.668 116.939h32.303m-32.303 9.311h32.303m-32.303 9.31h32.303M119.153 293.762h32.303m-32.303 9.31h32.303m-32.303 9.311h32.303m330.184 47.773h32.303m-32.303 9.311h32.303m-32.303 9.31h32.303" stroke="#696969" stroke-miterlimit="10" stroke-width="3"/></g><g fill="#fdbd43"><circle cx="520.577" cy="300.496" r="13.807"/><circle cx="484.141" cy="310.461" r="7.159"/><circle cx="502.32" cy="266.711" r="10.228"/><circle cx="206.393" cy="389.674" r="16.428"/><circle cx="175.001" cy="377.974" r="8.557"/><circle cx="182.861" cy="348.886" r="4.936"/><circle cx="210.185" cy="352.378" r="11.833"/><circle cx="218.423" cy="143.059" r="16.428"/><circle cx="219.09" cy="109.564" r="8.557"/><circle cx="276.085" cy="114.564" r="7.406"/><circle cx="249.141" cy="107.367" r="4.936"/><circle cx="254.877" cy="134.31" r="11.833"/></g><path fill="#7a7a7a" d="M480.858 233.243H202.622l-9.072-23h287.309a2.722 2.722 0 0 1 2.722 2.722v17.557a2.722 2.722 0 0 1-2.722 2.722z"/><path fill="#fdbd43" d="M440.323 354.089H251.127a4.536 4.536 0 0 1-4.247-2.942l-44.258-117.904h268.547l-26.42 117.307a4.536 4.536 0 0 1-4.425 3.54z"/><g fill="#0b0b0b"><path d="M457.562 293.669c-19.355 1.241-38.71 1.891-58.065 2.332l-29.033.5-29.032.166q-29.033.026-58.065-.657c-19.355-.439-38.71-1.092-58.065-2.341 19.355-1.249 38.71-1.901 58.065-2.341q29.032-.652 58.065-.657l29.033.166 29.033.5c19.355.441 38.71 1.091 58.065 2.332z"/><path d="M419.704 233.243c-1.103 10.546-2.788 20.96-4.648 31.336q-2.827 15.555-6.309 30.962-3.464 15.411-7.566 30.678l-4.335 15.215-2.361 7.564-.632 1.91a4.919 4.919 0 0 1-1.182 1.859 4.675 4.675 0 0 1-3.814 1.323 4.373 4.373 0 0 0 3.12-1.908 3.914 3.914 0 0 0 .633-1.61l.252-1.939 1.11-7.846c.788-5.219 1.673-10.417 2.606-15.604q2.827-15.554 6.317-30.96 3.476-15.408 7.574-30.677c2.767-10.171 5.71-20.302 9.235-30.302zM311.586 354.089a4.681 4.681 0 0 1-3.924-1.458 6.696 6.696 0 0 1-1.156-1.882l-.896-1.857-3.484-7.466c-2.278-4.995-4.463-10.024-6.603-15.07q-6.392-15.149-12.154-30.534-5.78-15.379-10.948-30.987c-3.416-10.417-6.66-20.898-9.339-31.591 5.019 9.815 9.473 19.842 13.756 29.933q6.391 15.149 12.147 30.537 5.769 15.383 10.94 30.99l4.944 15.692 2.289 7.915.547 1.988a5.887 5.887 0 0 0 .667 1.775 4.37 4.37 0 0 0 3.215 2.015z"/></g><circle cx="298.105" cy="428.058" r="18.743" fill="#7a7a7a"/><circle cx="298.105" cy="428.058" r="8.651" fill="#f6f6f6"/><circle cx="406.224" cy="428.058" r="18.743" fill="#7a7a7a"/><circle cx="406.224" cy="428.058" r="8.651" fill="#f6f6f6"/><path fill="#0b0b0b" d="M343.092 233.243c1.839 9.997 3.083 20.029 4.147 30.072q1.559 15.066 2.447 30.173.907 15.105 1.161 30.25c.138 10.098.092 20.207-.555 30.352-1.847-9.996-3.093-20.028-4.155-30.071q-1.558-15.067-2.439-30.173-.895-15.106-1.153-30.25c-.136-10.098-.093-20.207.547-30.351z"/><g fill="#7a7a7a"><path d="M437.938 399.801H268.384a3 3 0 0 1-2.801-1.926l-98.198-255.978h-52.014a3 3 0 0 1 0-6h54.076a3 3 0 0 1 2.801 1.926l98.198 255.978h167.491a3 3 0 0 1 0 6z"/><rect width="39.6" height="18.36" x="103.858" y="130.248" rx="2"/></g><circle cx="340.677" cy="179.6" r="2.7" fill="#fdbd43"/></svg>