<svg xmlns="http://www.w3.org/2000/svg" width="320" height="280" fill="none" xmlns:v="https://vecta.io/nano"><g clip-path="url(#A)"><g fill="#999"><path d="M202.956 195.07l116.33-11.539-4.851-134.56L211.64 59.516l-8.684 135.555z"/><path d="M202.956 44.526l101.692-11.655 4.71 151.644-106.402 10.555V44.526z"/><path d="M208.672 43.555l-106.931-1.943 5.715 147.63 95.5 5.828 5.716-151.515z"/></g><path d="M203.909 36.513L305.6 24.858l7.145 152.001-108.836 10.198V36.513z" fill="#f9ae2b"/><path d="M203.909 182.025v5.032l108.836-10.198-.235-5.01-108.601 10.176z" fill="#e59413"/><path d="M203.909 36.513L96.978 34.571l5.715 147.63 101.216 4.856V36.513z" fill="#f9ae2b"/><g fill="#e59413"><path d="M102.693 182.201l101.216 4.856v-5.184l-101.216-4.857v5.185z"/><path d="M109.427 132.945c.306 11.867 4.39 23.311 11.637 32.602s17.262 15.927 28.533 18.904l44.548 2.137V42.826s-33.66 2.437-68.561-7.736l-18.675-.339 2.518 98.194zm151.284 48.789c10.995-7.999 19.843-18.687 25.729-31.083s8.62-26.101 7.954-39.857l-4.081-84.184-24.662 2.827c-22.545 11.638-50.114 18.931-50.114 18.931v137.599l45.174-4.233z"/></g><path d="M203.909 36.513S260.828 21.459 277.975.091l4.791 98.848c.929 19.162-4.748 38.051-16.046 53.393s-27.505 26.169-45.812 30.606l-16.999 4.119V36.513z" fill="#f9ae2b"/><path d="M219.04 36.513l-15.131 150.544s19.268-1.484 20.779-1.947c16.919-15.824 26.551-42.411 24.256-66.03l-9.222-94.879c-6.123 2.562-12.125 4.779-17.416 6.599l-3.266 5.713z" fill="#e59413"/><path d="M203.909 36.513S220.342 8.347 222.247.091l11.565 118.989c1.264 13.005-.83 26.122-6.076 38.047s-13.46 22.243-23.827 29.93V36.513zm0 0s-46.916 3.399-87.402-14.569l2.684 104.688c.319 12.452 4.797 24.419 12.694 33.923s18.737 15.977 30.731 18.346l41.293 8.156V36.513z" fill="#f9ae2b"/><path d="M203.909 36.513c.821 12.545 1.251 25.091 1.543 37.636l.331 18.818.11 18.818-.105 18.818-.33 18.818c-.291 12.545-.723 25.091-1.549 37.636-.826-12.545-1.258-25.091-1.549-37.636l-.33-18.818-.104-18.818.109-18.818.331-18.818c.292-12.545.722-25.091 1.543-37.636zm-69.311 21.201c5.005.432 9.912 1.046 14.818 1.633l14.66 1.79 14.651 1.563c4.9.476 9.798.77 14.814 1.206-4.886 1.204-9.886 1.866-14.912 1.975-5.013.111-10.028-.13-15.008-.724a122.82 122.82 0 0 1-14.761-2.689 86.83 86.83 0 0 1-14.262-4.753zm0 21.606c5.005.432 9.912 1.046 14.818 1.633l14.66 1.79 14.651 1.563c4.9.476 9.798.77 14.814 1.206-4.886 1.204-9.886 1.866-14.912 1.975a106.73 106.73 0 0 1-15.008-.724 122.82 122.82 0 0 1-14.761-2.689 86.83 86.83 0 0 1-14.262-4.753zm0 21.606c5.005.432 9.912 1.046 14.818 1.633l14.66 1.79 14.651 1.563c4.9.476 9.798.77 14.814 1.206a68.53 68.53 0 0 1-14.912 1.975 106.76 106.76 0 0 1-15.008-.725 122.68 122.68 0 0 1-14.761-2.689 86.79 86.79 0 0 1-14.262-4.753zm0 21.606c5.005.431 9.912 1.046 14.818 1.633l14.66 1.79 14.651 1.563c4.9.475 9.798.77 14.814 1.206a68.59 68.59 0 0 1-14.912 1.974 106.61 106.61 0 0 1-15.008-.724 122.68 122.68 0 0 1-14.761-2.689c-4.878-1.168-9.65-2.758-14.262-4.753zm0 21.606c5.005.431 9.912 1.045 14.818 1.633l14.66 1.79 14.651 1.563c4.9.475 9.798.769 14.814 1.205a68.53 68.53 0 0 1-14.912 1.975 106.61 106.61 0 0 1-15.008-.724 122.88 122.88 0 0 1-14.761-2.689c-4.878-1.168-9.65-2.758-14.262-4.753z" fill="#e59413"/><path d="M274.723 60.605l-23.117 3.975a1.95 1.95 0 0 1-.775-.004 1.97 1.97 0 0 1-.714-.305 2.01 2.01 0 0 1-.545-.561c-.144-.222-.243-.47-.293-.731l-.766-17.025c-.05-.261-.049-.529.003-.789a2.04 2.04 0 0 1 .3-.728 2 2 0 0 1 .55-.556 1.96 1.96 0 0 1 .717-.299l23.414-4.906c.256-.051.519-.049.774.004a1.96 1.96 0 0 1 .714.306c.216.149.401.339.545.561a2.03 2.03 0 0 1 .293.731l.47 17.957c.101.527-.009 1.073-.303 1.518a1.98 1.98 0 0 1-1.267.854zm-13.124 41.946l-23.117 3.975a1.94 1.94 0 0 1-.774-.003 1.97 1.97 0 0 1-.714-.306c-.216-.149-.402-.339-.545-.561s-.244-.47-.293-.731l-.767-17.025a2.06 2.06 0 0 1 .303-1.518c.295-.445.75-.752 1.267-.854l23.414-4.906c.256-.051.519-.049.774.004s.498.157.715.305a2.01 2.01 0 0 1 .545.561c.143.222.243.47.293.731l.47 17.956a2.08 2.08 0 0 1-.004.79 2.04 2.04 0 0 1-.3.728c-.145.22-.332.409-.55.556a1.96 1.96 0 0 1-.717.298z" fill="#ee781d"/><path d="M236.959 85.528c-.517.102-.972.41-1.267.854a2.06 2.06 0 0 0-.303 1.517l.767 17.025a2.02 2.02 0 0 0 .838 1.292c.436.3.971.411 1.488.309l9.089-1.563-2.063-21.226-8.549 1.791z" fill="#ce800d"/><path d="M270.648 144.498l-23.118 3.975a1.95 1.95 0 0 1-1.488-.31 2.02 2.02 0 0 1-.838-1.291l-.767-17.026c-.05-.261-.049-.529.004-.789s.153-.508.299-.728a2.02 2.02 0 0 1 .55-.556c.218-.146.461-.248.717-.299l23.414-4.906c.256-.05.519-.049.775.004s.498.157.714.305a2.02 2.02 0 0 1 .545.561 2.07 2.07 0 0 1 .293.731l.47 17.957c.049.261.048.529-.004.789s-.154.508-.3.728a1.98 1.98 0 0 1-.55.556c-.217.147-.461.248-.716.299z" fill="#ee781d"/><path d="M246.007 127.474c-.517.103-.972.41-1.267.855a2.06 2.06 0 0 0-.303 1.517l.767 17.026a2.02 2.02 0 0 0 .343.799 1.98 1.98 0 0 0 .644.575 83.62 83.62 0 0 0 3.077-21.455l-3.261.683z" fill="#ce800d"/><path d="M80.777 174.738l-15.67-9.113-8.938 15.977 15.67 9.113 8.938-15.977z" fill="#dbe8ec"/><path d="M140.595 170.622c9.843-7.568 17.265-17.942 21.325-29.81a64.74 64.74 0 0 0 1.489-36.865c-3.09-12.168-9.65-23.129-18.85-31.496s-20.626-13.765-32.835-15.511-24.651.238-35.754 5.701-20.367 14.161-26.622 24.992-9.219 23.311-8.517 35.86 5.037 24.604 12.458 34.641c4.928 6.665 11.095 12.276 18.15 16.511s14.859 7.012 22.966 8.171 16.359.68 24.285-1.413 15.369-5.756 21.905-10.782zm-77.603-19.937c-5.978-8.081-9.471-17.788-10.038-27.893s1.818-20.154 6.854-28.877 12.495-15.728 21.435-20.128 18.959-5.999 28.79-4.594 19.033 5.752 26.441 12.489 12.691 15.564 15.179 25.362 2.071 20.129-1.199 29.686-9.248 17.909-17.175 24.003c-10.628 8.167-24.003 11.697-37.184 9.813s-25.088-9.028-33.103-19.861z" fill="#3086a3"/><path opacity=".76" d="M103.064 171.048c27.72 0 50.191-22.91 50.191-51.172s-22.471-51.173-50.191-51.173-50.19 22.911-50.19 51.173 22.471 51.172 50.19 51.172z" fill="#fff"/><path d="M138.899 122.122c-.478 7.927-3.472 15.481-8.53 21.521s-11.905 10.239-19.509 11.964-15.552.88-22.644-2.405-12.944-8.832-16.673-15.805" stroke="#dbe8ec" stroke-width="10" stroke-miterlimit="10"/><path d="M76.576 193.418l-25.1-14.597c-.952-.553-2.164-.215-2.707.755l-36.713 65.626c-.543.971-.211 2.207.741 2.76l25.1 14.597c.952.553 2.164.215 2.707-.755l36.713-65.626c.543-.971.212-2.207-.741-2.76z" fill="#3086a3"/><path d="M40.603 261.804l36.713-65.627c.129-.23.212-.485.245-.748s.014-.532-.055-.788a2.04 2.04 0 0 0-.346-.706c-.16-.21-.359-.386-.585-.518l-6.242-3.63a2.02 2.02 0 0 1 .931 1.224 2.06 2.06 0 0 1-.19 1.536L34.36 258.173c-.129.231-.302.434-.508.597a1.98 1.98 0 0 1-.693.352c-.251.071-.514.089-.772.056s-.508-.118-.734-.25l6.243 3.631c.226.131.476.216.735.25s.521.014.772-.056.487-.19.693-.353.378-.366.507-.596z" fill="#25788e"/><g fill="#409cb5"><path d="M18.092 248.713l36.713-65.626a2 2 0 0 1 .508-.597 1.97 1.97 0 0 1 .693-.353c.252-.07.514-.089.772-.055a1.98 1.98 0 0 1 .734.249l6.934 4.033-12.971-7.543a1.95 1.95 0 0 0-1.507-.194 1.99 1.99 0 0 0-1.2.949l-36.713 65.626a2.06 2.06 0 0 0-.19 1.537 2.02 2.02 0 0 0 .931 1.223l6.037 3.511a2.01 2.01 0 0 1-.585-.518 2.04 2.04 0 0 1-.346-.706 2.06 2.06 0 0 1-.055-.787 2.04 2.04 0 0 1 .245-.749zm7.675 6.792l12.129 7.053h.001l-12.13-7.053z"/></g><path d="M12.67 241.671l30.603 17.796a2.02 2.02 0 0 1 .931 1.223 2.06 2.06 0 0 1-.19 1.537l-2.921 5.222c-1.718 3.071-4.562 5.32-7.906 6.253a12.85 12.85 0 0 1-9.927-1.279L11.92 265.83a13.15 13.15 0 0 1-3.853-3.409c-1.052-1.383-1.827-2.964-2.28-4.652a13.58 13.58 0 0 1-.36-5.188 13.5 13.5 0 0 1 1.614-4.933l2.921-5.222a1.99 1.99 0 0 1 1.2-.949 1.95 1.95 0 0 1 1.507.194z" fill="#dbe8ec"/><path d="M12.976 251.144l2.921-5.222c.261-.466.693-.807 1.2-.949a1.95 1.95 0 0 1 1.507.194l24.982 14.528a1.98 1.98 0 0 0-.314-.228L12.669 241.67a1.96 1.96 0 0 0-1.507-.194 1.99 1.99 0 0 0-1.2.95l-2.921 5.221a13.56 13.56 0 0 0-1.254 10.122c.915 3.41 3.121 6.309 6.133 8.061l5.288 3.075c-2.794-1.852-4.789-4.722-5.576-8.024s-.306-6.785 1.344-9.737z" fill="#e8eeef"/><path d="M41.092 267.449l2.921-5.222a2.06 2.06 0 0 0 .19-1.537 2.02 2.02 0 0 0-.931-1.223l-6.27-3.646c.456.266.789.706.927 1.223s.069 1.068-.191 1.533l-2.921 5.222c-1.718 3.071-4.562 5.32-7.906 6.253a12.85 12.85 0 0 1-9.927-1.279l-5.074-2.95.011.007 11.338 6.593a12.92 12.92 0 0 0 4.839 1.646c1.703.219 3.432.094 5.088-.368s3.206-1.251 4.563-2.324 2.493-2.408 3.343-3.928z" fill="#bad5db"/></g><defs><clipPath id="A"><path fill="#fff" transform="translate(.564)" d="M0 0h319.436v279.027H0z"/></clipPath></defs></svg>